<svg preserveAspectRatio="none" width="154" height="55" viewBox="0 0 154 55" fill="none" xmlns="http://www.w3.org/2000/svg">
<path d="M140.546 0L153.817 13.2707V54.0528L13.633 54.0529L0.362305 40.7822L0.362308 7.53999e-05L140.546 0Z" fill="#770D0D"/>
<g opacity="0.25">
<mask id="mask0_0_151" style="mask-type:alpha" maskUnits="userSpaceOnUse" x="2" y="2" width="152" height="27">
<path d="M14.9149 28.5068L2.3623 15.9542L2.36231 2L140.81 2.00001L153.362 14.5526V28.5068L14.9149 28.5068Z" fill="#5F5F5F"/>
</mask>
<g mask="url(#mask0_0_151)">
<path d="M139.362 2.43103H135.362C138.529 5.76436 144.962 12.431 145.362 12.431H149.362L139.362 2.43103Z" fill="url(#paint0_linear_0_151)"/>
<path d="M132.362 2.43103H128.362C131.529 5.76436 137.962 12.431 138.362 12.431H142.362L132.362 2.43103Z" fill="url(#paint1_linear_0_151)"/>
<path d="M125.362 2.43103H121.362C124.529 5.76436 130.962 12.431 131.362 12.431H135.362L125.362 2.43103Z" fill="url(#paint2_linear_0_151)"/>
<path d="M118.362 2.43103H114.362C117.529 5.76436 123.962 12.431 124.362 12.431H128.362L118.362 2.43103Z" fill="url(#paint3_linear_0_151)"/>
<path d="M111.362 2.43103H107.362C110.529 5.76436 116.962 12.431 117.362 12.431H121.362L111.362 2.43103Z" fill="url(#paint4_linear_0_151)"/>
<path d="M104.362 2.43103H100.362C103.529 5.76436 109.962 12.431 110.362 12.431H114.362L104.362 2.43103Z" fill="url(#paint5_linear_0_151)"/>
<path d="M97.3622 2.43103H93.3622C96.5289 5.76436 102.962 12.431 103.362 12.431H107.362L97.3622 2.43103Z" fill="url(#paint6_linear_0_151)"/>
<path d="M90.3622 2.43103H86.3622C89.5289 5.76436 95.9622 12.431 96.3622 12.431H100.362L90.3622 2.43103Z" fill="url(#paint7_linear_0_151)"/>
<path d="M83.3622 2.43103H79.3622C82.5289 5.76436 88.9622 12.431 89.3622 12.431H93.3622L83.3622 2.43103Z" fill="url(#paint8_linear_0_151)"/>
<path d="M76.3622 2.43103H72.3622C75.5289 5.76436 81.9622 12.431 82.3622 12.431H86.3622L76.3622 2.43103Z" fill="url(#paint9_linear_0_151)"/>
<path d="M69.3622 2.43103H65.3622C68.5289 5.76436 74.9622 12.431 75.3622 12.431H79.3622L69.3622 2.43103Z" fill="url(#paint10_linear_0_151)"/>
<path d="M62.3622 2.43103H58.3622C61.5289 5.76436 67.9622 12.431 68.3622 12.431H72.3622L62.3622 2.43103Z" fill="url(#paint11_linear_0_151)"/>
<path d="M55.3622 2.43103H51.3622C54.5289 5.76436 60.9622 12.431 61.3622 12.431H65.3622L55.3622 2.43103Z" fill="url(#paint12_linear_0_151)"/>
<path d="M48.3622 2.43103H44.3622C47.5289 5.76436 53.9622 12.431 54.3622 12.431H58.3622L48.3622 2.43103Z" fill="url(#paint13_linear_0_151)"/>
<path d="M41.3622 2.43103H37.3622C40.5289 5.76436 46.9622 12.431 47.3622 12.431H51.3622L41.3622 2.43103Z" fill="url(#paint14_linear_0_151)"/>
<path d="M34.3622 2.43103H30.3622C33.5289 5.76436 39.9622 12.431 40.3622 12.431H44.3622L34.3622 2.43103Z" fill="url(#paint15_linear_0_151)"/>
<path d="M27.3622 2.43103H23.3622C26.5289 5.76436 32.9622 12.431 33.3622 12.431H37.3622L27.3622 2.43103Z" fill="url(#paint16_linear_0_151)"/>
<path d="M20.3622 2.43103H16.3622C19.5289 5.76436 25.9622 12.431 26.3622 12.431H30.3622L20.3622 2.43103Z" fill="url(#paint17_linear_0_151)"/>
<path d="M13.3622 2.43103H9.36224C12.5289 5.76436 18.9622 12.431 19.3622 12.431H23.3622L13.3622 2.43103Z" fill="url(#paint18_linear_0_151)"/>
<path d="M6.36224 2.43103H2.36224C5.52891 5.76436 11.9622 12.431 12.3622 12.431H16.3622L6.36224 2.43103Z" fill="url(#paint19_linear_0_151)"/>
<path d="M-0.637756 2.43103H-4.63776C-1.47109 5.76436 4.96224 12.431 5.36224 12.431H9.36224L-0.637756 2.43103Z" fill="url(#paint20_linear_0_151)"/>
</g>
</g>
<defs>
<linearGradient id="paint0_linear_0_151" x1="142.362" y1="2.43103" x2="142.362" y2="10.931" gradientUnits="userSpaceOnUse">
<stop stop-color="#090909"/>
<stop offset="1" stop-opacity="0"/>
</linearGradient>
<linearGradient id="paint1_linear_0_151" x1="135.362" y1="2.43103" x2="135.362" y2="10.931" gradientUnits="userSpaceOnUse">
<stop stop-color="#090909"/>
<stop offset="1" stop-opacity="0"/>
</linearGradient>
<linearGradient id="paint2_linear_0_151" x1="128.362" y1="2.43103" x2="128.362" y2="10.931" gradientUnits="userSpaceOnUse">
<stop stop-color="#090909"/>
<stop offset="1" stop-opacity="0"/>
</linearGradient>
<linearGradient id="paint3_linear_0_151" x1="121.362" y1="2.43103" x2="121.362" y2="10.931" gradientUnits="userSpaceOnUse">
<stop stop-color="#090909"/>
<stop offset="1" stop-opacity="0"/>
</linearGradient>
<linearGradient id="paint4_linear_0_151" x1="114.362" y1="2.43103" x2="114.362" y2="10.931" gradientUnits="userSpaceOnUse">
<stop stop-color="#090909"/>
<stop offset="1" stop-opacity="0"/>
</linearGradient>
<linearGradient id="paint5_linear_0_151" x1="107.362" y1="2.43103" x2="107.362" y2="10.931" gradientUnits="userSpaceOnUse">
<stop stop-color="#090909"/>
<stop offset="1" stop-opacity="0"/>
</linearGradient>
<linearGradient id="paint6_linear_0_151" x1="100.362" y1="2.43103" x2="100.362" y2="10.931" gradientUnits="userSpaceOnUse">
<stop stop-color="#090909"/>
<stop offset="1" stop-opacity="0"/>
</linearGradient>
<linearGradient id="paint7_linear_0_151" x1="93.3622" y1="2.43103" x2="93.3622" y2="10.931" gradientUnits="userSpaceOnUse">
<stop stop-color="#090909"/>
<stop offset="1" stop-opacity="0"/>
</linearGradient>
<linearGradient id="paint8_linear_0_151" x1="86.3622" y1="2.43103" x2="86.3622" y2="10.931" gradientUnits="userSpaceOnUse">
<stop stop-color="#090909"/>
<stop offset="1" stop-opacity="0"/>
</linearGradient>
<linearGradient id="paint9_linear_0_151" x1="79.3622" y1="2.43103" x2="79.3622" y2="10.931" gradientUnits="userSpaceOnUse">
<stop stop-color="#090909"/>
<stop offset="1" stop-opacity="0"/>
</linearGradient>
<linearGradient id="paint10_linear_0_151" x1="72.3622" y1="2.43103" x2="72.3622" y2="10.931" gradientUnits="userSpaceOnUse">
<stop stop-color="#090909"/>
<stop offset="1" stop-opacity="0"/>
</linearGradient>
<linearGradient id="paint11_linear_0_151" x1="65.3622" y1="2.43103" x2="65.3622" y2="10.931" gradientUnits="userSpaceOnUse">
<stop stop-color="#090909"/>
<stop offset="1" stop-opacity="0"/>
</linearGradient>
<linearGradient id="paint12_linear_0_151" x1="58.3622" y1="2.43103" x2="58.3622" y2="10.931" gradientUnits="userSpaceOnUse">
<stop stop-color="#090909"/>
<stop offset="1" stop-opacity="0"/>
</linearGradient>
<linearGradient id="paint13_linear_0_151" x1="51.3622" y1="2.43103" x2="51.3622" y2="10.931" gradientUnits="userSpaceOnUse">
<stop stop-color="#090909"/>
<stop offset="1" stop-opacity="0"/>
</linearGradient>
<linearGradient id="paint14_linear_0_151" x1="44.3622" y1="2.43103" x2="44.3622" y2="10.931" gradientUnits="userSpaceOnUse">
<stop stop-color="#090909"/>
<stop offset="1" stop-opacity="0"/>
</linearGradient>
<linearGradient id="paint15_linear_0_151" x1="37.3622" y1="2.43103" x2="37.3622" y2="10.931" gradientUnits="userSpaceOnUse">
<stop stop-color="#090909"/>
<stop offset="1" stop-opacity="0"/>
</linearGradient>
<linearGradient id="paint16_linear_0_151" x1="30.3622" y1="2.43103" x2="30.3622" y2="10.931" gradientUnits="userSpaceOnUse">
<stop stop-color="#090909"/>
<stop offset="1" stop-opacity="0"/>
</linearGradient>
<linearGradient id="paint17_linear_0_151" x1="23.3622" y1="2.43103" x2="23.3622" y2="10.931" gradientUnits="userSpaceOnUse">
<stop stop-color="#090909"/>
<stop offset="1" stop-opacity="0"/>
</linearGradient>
<linearGradient id="paint18_linear_0_151" x1="16.3622" y1="2.43103" x2="16.3622" y2="10.931" gradientUnits="userSpaceOnUse">
<stop stop-color="#090909"/>
<stop offset="1" stop-opacity="0"/>
</linearGradient>
<linearGradient id="paint19_linear_0_151" x1="9.36224" y1="2.43103" x2="9.36224" y2="10.931" gradientUnits="userSpaceOnUse">
<stop stop-color="#090909"/>
<stop offset="1" stop-opacity="0"/>
</linearGradient>
<linearGradient id="paint20_linear_0_151" x1="2.36224" y1="2.43103" x2="2.36224" y2="10.931" gradientUnits="userSpaceOnUse">
<stop stop-color="#090909"/>
<stop offset="1" stop-opacity="0"/>
</linearGradient>
</defs>
</svg>
