<svg preserveAspectRatio="none"  width="231" height="61" viewBox="0 0 231 61" fill="none" xmlns="http://www.w3.org/2000/svg">
<path d="M17.1584 2L1.50002 17.9164V58.7762L213.842 58.7763L229.5 42.8599L229.5 2.00009L17.1584 2Z" fill="#B60E0E" stroke="#B60E0E" stroke-width="3" stroke-linecap="round"/>
<g opacity="0.25">
<mask id="mask0_0_448" style="mask-type:alpha" maskUnits="userSpaceOnUse" x="2" y="2" width="226" height="32">
<path d="M213.377 33.8114L228 18.9835L228 2.5L16.6232 2.50001L2.00006 17.3279V33.8114L213.377 33.8114Z" fill="#5F5F5F"/>
</mask>
<g mask="url(#mask0_0_448)">
<path d="M18.3099 3.00879H22.9697C19.2807 6.94632 11.7862 14.8214 11.3202 14.8214H6.66044L18.3099 3.00879Z" fill="url(#paint0_linear_0_448)"/>
<path d="M26.4643 3.00879H31.1241C27.4351 6.94632 19.9406 14.8214 19.4746 14.8214H14.8148L26.4643 3.00879Z" fill="url(#paint1_linear_0_448)"/>
<path d="M34.6186 3.00879H39.2784C35.5894 6.94632 28.0949 14.8214 27.629 14.8214H22.9692L34.6186 3.00879Z" fill="url(#paint2_linear_0_448)"/>
<path d="M42.7728 3.00879H47.4326C43.7436 6.94632 36.249 14.8214 35.7831 14.8214H31.1233L42.7728 3.00879Z" fill="url(#paint3_linear_0_448)"/>
<path d="M50.928 3.00879H55.5878C51.8988 6.94632 44.4043 14.8214 43.9383 14.8214H39.2785L50.928 3.00879Z" fill="url(#paint4_linear_0_448)"/>
<path d="M59.0823 3.00879H63.7421C60.0531 6.94632 52.5586 14.8214 52.0926 14.8214H47.4328L59.0823 3.00879Z" fill="url(#paint5_linear_0_448)"/>
<path d="M67.2376 3.00879H71.8974C68.2084 6.94632 60.7139 14.8214 60.2479 14.8214H55.5881L67.2376 3.00879Z" fill="url(#paint6_linear_0_448)"/>
<path d="M75.3929 3.00879H80.0527C76.3637 6.94632 68.8692 14.8214 68.4032 14.8214H63.7434L75.3929 3.00879Z" fill="url(#paint7_linear_0_448)"/>
<path d="M83.5469 3.00879H88.2067C84.5177 6.94632 77.0232 14.8214 76.5572 14.8214H71.8974L83.5469 3.00879Z" fill="url(#paint8_linear_0_448)"/>
<path d="M91.7014 3.00879H96.3611C92.6721 6.94632 85.1776 14.8214 84.7117 14.8214H80.0519L91.7014 3.00879Z" fill="url(#paint9_linear_0_448)"/>
<path d="M99.8557 3.00879H104.516C100.826 6.94632 93.332 14.8214 92.866 14.8214H88.2062L99.8557 3.00879Z" fill="url(#paint10_linear_0_448)"/>
<path d="M108.011 3.00879H112.671C108.982 6.94632 101.487 14.8214 101.021 14.8214H96.3616L108.011 3.00879Z" fill="url(#paint11_linear_0_448)"/>
<path d="M116.165 3.00879H120.825C117.136 6.94632 109.642 14.8214 109.176 14.8214H104.516L116.165 3.00879Z" fill="url(#paint12_linear_0_448)"/>
<path d="M124.32 3.00879H128.98C125.291 6.94632 117.796 14.8214 117.33 14.8214H112.67L124.32 3.00879Z" fill="url(#paint13_linear_0_448)"/>
<path d="M132.475 3.00879H137.135C133.446 6.94632 125.951 14.8214 125.485 14.8214H120.825L132.475 3.00879Z" fill="url(#paint14_linear_0_448)"/>
<path d="M140.628 3.00879H145.288C141.599 6.94632 134.105 14.8214 133.639 14.8214H128.979L140.628 3.00879Z" fill="url(#paint15_linear_0_448)"/>
<path d="M148.784 3.00879H153.444C149.755 6.94632 142.261 14.8214 141.795 14.8214H137.135L148.784 3.00879Z" fill="url(#paint16_linear_0_448)"/>
<path d="M156.94 3.00879H161.6C157.911 6.94632 150.416 14.8214 149.95 14.8214H145.29L156.94 3.00879Z" fill="url(#paint17_linear_0_448)"/>
<path d="M165.093 3.00879H169.753C166.064 6.94632 158.569 14.8214 158.103 14.8214H153.444L165.093 3.00879Z" fill="url(#paint18_linear_0_448)"/>
<path d="M173.248 3.00879H177.908C174.219 6.94632 166.724 14.8214 166.258 14.8214H161.599L173.248 3.00879Z" fill="url(#paint19_linear_0_448)"/>
<path d="M181.403 3.00879H186.062C182.373 6.94632 174.879 14.8214 174.413 14.8214H169.753L181.403 3.00879Z" fill="url(#paint20_linear_0_448)"/>
<path d="M189.557 3.00879H194.217C190.528 6.94632 183.033 14.8214 182.567 14.8214H177.907L189.557 3.00879Z" fill="url(#paint21_linear_0_448)"/>
<path d="M197.712 3.00879H202.372C198.683 6.94632 191.189 14.8214 190.723 14.8214H186.063L197.712 3.00879Z" fill="url(#paint22_linear_0_448)"/>
<path d="M205.866 3.00879H210.526C206.837 6.94632 199.342 14.8214 198.876 14.8214H194.216L205.866 3.00879Z" fill="url(#paint23_linear_0_448)"/>
<path d="M214.021 3.00879H218.681C214.992 6.94632 207.497 14.8214 207.031 14.8214H202.371L214.021 3.00879Z" fill="url(#paint24_linear_0_448)"/>
<path d="M222.175 3.00879H226.835C223.146 6.94632 215.651 14.8214 215.185 14.8214H210.526L222.175 3.00879Z" fill="url(#paint25_linear_0_448)"/>
<path d="M230.329 3.00879H234.989C231.3 6.94632 223.806 14.8214 223.34 14.8214H218.68L230.329 3.00879Z" fill="url(#paint26_linear_0_448)"/>
<path d="M238.486 3.00879H243.145C239.456 6.94632 231.962 14.8214 231.496 14.8214H226.836L238.486 3.00879Z" fill="url(#paint27_linear_0_448)"/>
</g>
</g>
<defs>
<linearGradient id="paint0_linear_0_448" x1="14.8151" y1="3.00879" x2="14.8151" y2="13.0495" gradientUnits="userSpaceOnUse">
<stop stop-color="white"/>
<stop offset="1" stop-color="white" stop-opacity="0"/>
</linearGradient>
<linearGradient id="paint1_linear_0_448" x1="22.9694" y1="3.00879" x2="22.9694" y2="13.0495" gradientUnits="userSpaceOnUse">
<stop stop-color="white"/>
<stop offset="1" stop-color="white" stop-opacity="0"/>
</linearGradient>
<linearGradient id="paint2_linear_0_448" x1="31.1238" y1="3.00879" x2="31.1238" y2="13.0495" gradientUnits="userSpaceOnUse">
<stop stop-color="white"/>
<stop offset="1" stop-color="white" stop-opacity="0"/>
</linearGradient>
<linearGradient id="paint3_linear_0_448" x1="39.2779" y1="3.00879" x2="39.2779" y2="13.0495" gradientUnits="userSpaceOnUse">
<stop stop-color="white"/>
<stop offset="1" stop-color="white" stop-opacity="0"/>
</linearGradient>
<linearGradient id="paint4_linear_0_448" x1="47.4332" y1="3.00879" x2="47.4332" y2="13.0495" gradientUnits="userSpaceOnUse">
<stop stop-color="white"/>
<stop offset="1" stop-color="white" stop-opacity="0"/>
</linearGradient>
<linearGradient id="paint5_linear_0_448" x1="55.5875" y1="3.00879" x2="55.5875" y2="13.0495" gradientUnits="userSpaceOnUse">
<stop stop-color="white"/>
<stop offset="1" stop-color="white" stop-opacity="0"/>
</linearGradient>
<linearGradient id="paint6_linear_0_448" x1="63.7428" y1="3.00879" x2="63.7428" y2="13.0495" gradientUnits="userSpaceOnUse">
<stop stop-color="white"/>
<stop offset="1" stop-color="white" stop-opacity="0"/>
</linearGradient>
<linearGradient id="paint7_linear_0_448" x1="71.898" y1="3.00879" x2="71.898" y2="13.0495" gradientUnits="userSpaceOnUse">
<stop stop-color="white"/>
<stop offset="1" stop-color="white" stop-opacity="0"/>
</linearGradient>
<linearGradient id="paint8_linear_0_448" x1="80.0521" y1="3.00879" x2="80.0521" y2="13.0495" gradientUnits="userSpaceOnUse">
<stop stop-color="white"/>
<stop offset="1" stop-color="white" stop-opacity="0"/>
</linearGradient>
<linearGradient id="paint9_linear_0_448" x1="88.2065" y1="3.00879" x2="88.2065" y2="13.0495" gradientUnits="userSpaceOnUse">
<stop stop-color="white"/>
<stop offset="1" stop-color="white" stop-opacity="0"/>
</linearGradient>
<linearGradient id="paint10_linear_0_448" x1="96.3609" y1="3.00879" x2="96.3609" y2="13.0495" gradientUnits="userSpaceOnUse">
<stop stop-color="white"/>
<stop offset="1" stop-color="white" stop-opacity="0"/>
</linearGradient>
<linearGradient id="paint11_linear_0_448" x1="104.516" y1="3.00879" x2="104.516" y2="13.0495" gradientUnits="userSpaceOnUse">
<stop stop-color="white"/>
<stop offset="1" stop-color="white" stop-opacity="0"/>
</linearGradient>
<linearGradient id="paint12_linear_0_448" x1="112.671" y1="3.00879" x2="112.671" y2="13.0495" gradientUnits="userSpaceOnUse">
<stop stop-color="white"/>
<stop offset="1" stop-color="white" stop-opacity="0"/>
</linearGradient>
<linearGradient id="paint13_linear_0_448" x1="120.825" y1="3.00879" x2="120.825" y2="13.0495" gradientUnits="userSpaceOnUse">
<stop stop-color="white"/>
<stop offset="1" stop-color="white" stop-opacity="0"/>
</linearGradient>
<linearGradient id="paint14_linear_0_448" x1="128.98" y1="3.00879" x2="128.98" y2="13.0495" gradientUnits="userSpaceOnUse">
<stop stop-color="white"/>
<stop offset="1" stop-color="white" stop-opacity="0"/>
</linearGradient>
<linearGradient id="paint15_linear_0_448" x1="137.133" y1="3.00879" x2="137.133" y2="13.0495" gradientUnits="userSpaceOnUse">
<stop stop-color="white"/>
<stop offset="1" stop-color="white" stop-opacity="0"/>
</linearGradient>
<linearGradient id="paint16_linear_0_448" x1="145.29" y1="3.00879" x2="145.29" y2="13.0495" gradientUnits="userSpaceOnUse">
<stop stop-color="white"/>
<stop offset="1" stop-color="white" stop-opacity="0"/>
</linearGradient>
<linearGradient id="paint17_linear_0_448" x1="153.445" y1="3.00879" x2="153.445" y2="13.0495" gradientUnits="userSpaceOnUse">
<stop stop-color="white"/>
<stop offset="1" stop-color="white" stop-opacity="0"/>
</linearGradient>
<linearGradient id="paint18_linear_0_448" x1="161.598" y1="3.00879" x2="161.598" y2="13.0495" gradientUnits="userSpaceOnUse">
<stop stop-color="white"/>
<stop offset="1" stop-color="white" stop-opacity="0"/>
</linearGradient>
<linearGradient id="paint19_linear_0_448" x1="169.753" y1="3.00879" x2="169.753" y2="13.0495" gradientUnits="userSpaceOnUse">
<stop stop-color="white"/>
<stop offset="1" stop-color="white" stop-opacity="0"/>
</linearGradient>
<linearGradient id="paint20_linear_0_448" x1="177.908" y1="3.00879" x2="177.908" y2="13.0495" gradientUnits="userSpaceOnUse">
<stop stop-color="white"/>
<stop offset="1" stop-color="white" stop-opacity="0"/>
</linearGradient>
<linearGradient id="paint21_linear_0_448" x1="186.062" y1="3.00879" x2="186.062" y2="13.0495" gradientUnits="userSpaceOnUse">
<stop stop-color="white"/>
<stop offset="1" stop-color="white" stop-opacity="0"/>
</linearGradient>
<linearGradient id="paint22_linear_0_448" x1="194.217" y1="3.00879" x2="194.217" y2="13.0495" gradientUnits="userSpaceOnUse">
<stop stop-color="white"/>
<stop offset="1" stop-color="white" stop-opacity="0"/>
</linearGradient>
<linearGradient id="paint23_linear_0_448" x1="202.371" y1="3.00879" x2="202.371" y2="13.0495" gradientUnits="userSpaceOnUse">
<stop stop-color="white"/>
<stop offset="1" stop-color="white" stop-opacity="0"/>
</linearGradient>
<linearGradient id="paint24_linear_0_448" x1="210.526" y1="3.00879" x2="210.526" y2="13.0495" gradientUnits="userSpaceOnUse">
<stop stop-color="white"/>
<stop offset="1" stop-color="white" stop-opacity="0"/>
</linearGradient>
<linearGradient id="paint25_linear_0_448" x1="218.68" y1="3.00879" x2="218.68" y2="13.0495" gradientUnits="userSpaceOnUse">
<stop stop-color="white"/>
<stop offset="1" stop-color="white" stop-opacity="0"/>
</linearGradient>
<linearGradient id="paint26_linear_0_448" x1="226.835" y1="3.00879" x2="226.835" y2="13.0495" gradientUnits="userSpaceOnUse">
<stop stop-color="white"/>
<stop offset="1" stop-color="white" stop-opacity="0"/>
</linearGradient>
<linearGradient id="paint27_linear_0_448" x1="234.991" y1="3.00879" x2="234.991" y2="13.0495" gradientUnits="userSpaceOnUse">
<stop stop-color="white"/>
<stop offset="1" stop-color="white" stop-opacity="0"/>
</linearGradient>
</defs>
</svg>
