<svg preserveAspectRatio="none" width="851" height="50" viewBox="0 0 851 50" fill="none" xmlns="http://www.w3.org/2000/svg">
<path d="M0 5H851L831 50H20L0 5Z" fill="url(#paint0_linear_1_2580)"/>
<rect y="5" width="851" height="3" fill="url(#paint1_linear_1_2580)"/>
<rect x="466" y="10.4087" width="1.48611" height="7.51635" rx="0.743056" fill="white"/>
<g filter="url(#filter0_d_1_2580)">
<path d="M448.898 36.2473H446.602V26.7864H443.227V36.2473H440.93V24.8723H448.898V36.2473ZM452.969 36.2473H450.75V27.7942H452.969V36.2473ZM450.648 25.6067C450.648 25.2629 450.758 24.9817 450.977 24.7629C451.195 24.5442 451.487 24.4348 451.852 24.4348C452.216 24.4348 452.508 24.5442 452.727 24.7629C452.945 24.9817 453.055 25.2629 453.055 25.6067C453.055 25.9452 452.945 26.2265 452.727 26.4504C452.513 26.6744 452.221 26.7864 451.852 26.7864C451.482 26.7864 451.188 26.6744 450.969 26.4504C450.755 26.2265 450.648 25.9452 450.648 25.6067ZM454.82 36.2473V27.7942H457.891C458.875 27.7942 459.63 27.9973 460.156 28.4036C460.688 28.8098 460.953 29.3931 460.953 30.1536C460.953 30.5442 460.839 30.8958 460.609 31.2083C460.385 31.5155 460.057 31.7525 459.625 31.9192C460.151 32.0286 460.565 32.2499 460.867 32.5833C461.174 32.9114 461.328 33.328 461.328 33.8333C461.328 35.4426 460.315 36.2473 458.289 36.2473H454.82ZM457.023 32.7473V34.427H458.344C458.63 34.427 458.831 34.3567 458.945 34.2161C459.06 34.0754 459.117 33.8697 459.117 33.5989C459.117 33.2864 459.055 33.0676 458.93 32.9426C458.805 32.8176 458.625 32.7525 458.391 32.7473H457.023ZM457.023 31.2239H457.922C458.219 31.2239 458.427 31.1614 458.547 31.0364C458.672 30.9062 458.734 30.7161 458.734 30.4661C458.734 29.9192 458.479 29.6353 457.969 29.6145H457.023V31.2239ZM469.016 36.2473H466.805V33.0051H464.859V36.2473H462.641V27.7942H464.859V31.177H466.805V27.7942H469.016V36.2473ZM472.953 36.2473H470.734V27.7942H472.953V36.2473ZM470.633 25.6067C470.633 25.2629 470.742 24.9817 470.961 24.7629C471.18 24.5442 471.471 24.4348 471.836 24.4348C472.201 24.4348 472.492 24.5442 472.711 24.7629C472.93 24.9817 473.039 25.2629 473.039 25.6067C473.039 25.9452 472.93 26.2265 472.711 26.4504C472.497 26.6744 472.206 26.7864 471.836 26.7864C471.466 26.7864 471.172 26.6744 470.953 26.4504C470.74 26.2265 470.633 25.9452 470.633 25.6067ZM480.906 36.2473H478.688V33.6379C478.427 33.69 478.174 33.7161 477.93 33.7161C476.815 33.7161 475.971 33.44 475.398 32.8879C474.831 32.3306 474.547 31.526 474.547 30.4739V27.7942H476.766V30.4817C476.766 30.9973 476.849 31.3593 477.016 31.5676C477.188 31.776 477.492 31.8801 477.93 31.8801C478.159 31.8801 478.411 31.8515 478.688 31.7942V27.7942H480.906V36.2473Z" fill="white"/>
</g>
<rect x="523.431" y="10.4087" width="1.48611" height="7.51635" rx="0.743056" fill="white"/>
<g filter="url(#filter1_d_1_2580)">
<path d="M520.402 31.0862H519.186V22.6575L517.094 23.594V22.4456L520.211 21.0852H520.402V31.0862ZM529.036 26.8411C529.036 28.3085 528.822 29.4068 528.394 30.136C527.965 30.8606 527.293 31.2229 526.377 31.2229C525.488 31.2229 524.825 30.8743 524.388 30.177C523.95 29.4797 523.722 28.4316 523.704 27.0325V25.3235C523.704 23.8697 523.918 22.7851 524.347 22.0696C524.78 21.3541 525.452 20.9963 526.363 20.9963C527.261 20.9963 527.924 21.3359 528.353 22.0149C528.785 22.6939 529.013 23.7216 529.036 25.0979V26.8411ZM527.826 25.1116C527.826 24.0588 527.71 23.2841 527.478 22.7874C527.245 22.2861 526.874 22.0354 526.363 22.0354C525.867 22.0354 525.502 22.2815 525.27 22.7737C525.037 23.2613 524.916 23.9996 524.907 24.9885V27.0393C524.907 28.0875 525.028 28.8759 525.27 29.4045C525.511 29.9286 525.88 30.1907 526.377 30.1907C526.869 30.1907 527.231 29.9423 527.464 29.4456C527.696 28.9488 527.817 28.19 527.826 27.1692V25.1116Z" fill="white"/>
</g>
<rect x="564.431" y="10.4087" width="1.48611" height="7.51635" rx="0.743056" fill="white"/>
<g filter="url(#filter2_d_1_2580)">
<path d="M561.402 31.0862H560.186V22.6575L558.094 23.594V22.4456L561.211 21.0852H561.402V31.0862ZM565.21 26.0959L565.641 21.1331H569.968V22.302H566.659L566.427 25.0159C566.837 24.7288 567.279 24.5852 567.753 24.5852C568.528 24.5852 569.136 24.886 569.578 25.4875C570.02 26.0891 570.241 26.898 570.241 27.9143C570.241 28.9443 570 29.7532 569.517 30.3411C569.038 30.929 568.38 31.2229 567.541 31.2229C566.794 31.2229 566.185 30.9791 565.716 30.4915C565.246 30.0038 564.978 29.3293 564.909 28.468H566.044C566.112 29.0377 566.274 29.4683 566.529 29.76C566.789 30.0471 567.126 30.1907 567.541 30.1907C568.01 30.1907 568.377 29.9879 568.642 29.5823C568.906 29.1721 569.038 28.6207 569.038 27.928C569.038 27.2763 568.895 26.7454 568.607 26.3352C568.325 25.925 567.942 25.72 567.459 25.72C567.058 25.72 566.737 25.8248 566.495 26.0344L566.174 26.3557L565.21 26.0959Z" fill="white"/>
</g>
<rect x="667.431" y="9.20435" width="1.48611" height="7.51635" rx="0.743056" fill="white"/>
<g filter="url(#filter3_d_1_2580)">
<path d="M655.898 35.043H653.602V25.582H650.227V35.043H647.93V23.668H655.898V35.043ZM664.016 35.043H661.805V31.8008H659.859V35.043H657.641V26.5898H659.859V29.9727H661.805V26.5898H664.016V35.043ZM669.609 31.0898H665.789V29.2461H669.609V31.0898ZM679.266 31.2539C679.208 32.5508 678.844 33.5326 678.172 34.1992C677.5 34.8659 676.552 35.1992 675.328 35.1992C674.042 35.1992 673.055 34.7773 672.367 33.9336C671.685 33.0846 671.344 31.8763 671.344 30.3086V28.3945C671.344 26.832 671.698 25.6289 672.406 24.7852C673.115 23.9362 674.099 23.5117 675.359 23.5117C676.599 23.5117 677.539 23.8581 678.18 24.5508C678.826 25.2435 679.193 26.2383 679.281 27.5352H676.977C676.956 26.7331 676.831 26.181 676.602 25.8789C676.378 25.5716 675.964 25.418 675.359 25.418C674.745 25.418 674.31 25.6341 674.055 26.0664C673.799 26.4935 673.664 27.1992 673.648 28.1836V30.332C673.648 31.4622 673.773 32.2383 674.023 32.6602C674.279 33.082 674.714 33.293 675.328 33.293C675.932 33.293 676.349 33.1471 676.578 32.8555C676.807 32.5586 676.938 32.0247 676.969 31.2539H679.266ZM683.398 29.0977L684.383 26.5898H686.727L684.797 30.7227L686.797 35.043H684.445L683.406 32.3945L682.375 35.043H680.016L682.016 30.7227L680.102 26.5898H682.453L683.398 29.0977Z" fill="white"/>
</g>
<rect x="603.431" y="11.6128" width="1.48611" height="7.51635" rx="0.743056" fill="white"/>
<g filter="url(#filter4_d_1_2580)">
<path d="M598.345 26.6985H599.117C599.614 26.6985 599.997 26.5458 600.266 26.2405C600.535 25.9351 600.669 25.5181 600.669 24.9895C600.669 23.8228 600.218 23.2395 599.315 23.2395C598.882 23.2395 598.543 23.3967 598.297 23.7112C598.051 24.0256 597.928 24.4381 597.928 24.9485H596.725C596.725 24.151 596.966 23.4947 597.449 22.9797C597.937 22.4602 598.559 22.2004 599.315 22.2004C600.099 22.2004 600.721 22.4465 601.182 22.9387C601.642 23.4264 601.872 24.1191 601.872 25.0168C601.872 25.4771 601.751 25.9078 601.51 26.3088C601.273 26.7053 600.963 26.997 600.58 27.1838C601.519 27.5302 601.988 28.3072 601.988 29.5149C601.988 30.4036 601.74 31.1122 601.243 31.6409C600.751 32.165 600.106 32.427 599.309 32.427C598.52 32.427 597.882 32.1786 597.395 31.6819C596.911 31.1806 596.67 30.5084 596.67 29.6653H597.88C597.88 30.1939 598.007 30.6155 598.263 30.9299C598.518 31.2398 598.867 31.3948 599.309 31.3948C599.76 31.3948 600.118 31.2421 600.382 30.9368C600.651 30.6314 600.785 30.1666 600.785 29.5422C600.785 28.3346 600.213 27.7307 599.069 27.7307H598.345V26.6985ZM609.036 28.0452C609.036 29.5126 608.822 30.6109 608.394 31.3401C607.965 32.0647 607.293 32.427 606.377 32.427C605.488 32.427 604.825 32.0784 604.388 31.3811C603.95 30.6838 603.722 29.6357 603.704 28.2366V26.5276C603.704 25.0738 603.918 23.9892 604.347 23.2737C604.78 22.5582 605.452 22.2004 606.363 22.2004C607.261 22.2004 607.924 22.54 608.353 23.219C608.785 23.898 609.013 24.9257 609.036 26.302V28.0452ZM607.826 26.3157C607.826 25.2629 607.71 24.4882 607.478 23.9915C607.245 23.4902 606.874 23.2395 606.363 23.2395C605.867 23.2395 605.502 23.4856 605.27 23.9778C605.037 24.4654 604.916 25.2037 604.907 26.1926V28.2434C604.907 29.2916 605.028 30.08 605.27 30.6086C605.511 31.1327 605.88 31.3948 606.377 31.3948C606.869 31.3948 607.231 31.1464 607.464 30.6497C607.696 30.1529 607.817 29.3941 607.826 28.3733V26.3157Z" fill="white"/>
</g>
<rect x="402.431" y="10.4087" width="1.48611" height="6.83305" rx="0.743056" fill="white"/>
<g filter="url(#filter5_d_1_2580)">
<path d="M392.345 25.4807H393.117C393.614 25.4807 393.997 25.328 394.266 25.0227C394.535 24.7174 394.669 24.3004 394.669 23.7717C394.669 22.6051 394.218 22.0217 393.315 22.0217C392.882 22.0217 392.543 22.179 392.297 22.4934C392.051 22.8079 391.928 23.2203 391.928 23.7307H390.725C390.725 22.9332 390.966 22.2769 391.449 21.762C391.937 21.2424 392.559 20.9827 393.315 20.9827C394.099 20.9827 394.721 21.2288 395.182 21.7209C395.642 22.2086 395.872 22.9013 395.872 23.7991C395.872 24.2594 395.751 24.69 395.51 25.0911C395.273 25.4875 394.963 25.7792 394.58 25.9661C395.519 26.3124 395.988 27.0894 395.988 28.2971C395.988 29.1858 395.74 29.8944 395.243 30.4231C394.751 30.9472 394.106 31.2092 393.309 31.2092C392.52 31.2092 391.882 30.9609 391.395 30.4641C390.911 29.9628 390.67 29.2906 390.67 28.4475H391.88C391.88 28.9762 392.007 29.3977 392.263 29.7122C392.518 30.0221 392.867 30.177 393.309 30.177C393.76 30.177 394.118 30.0243 394.382 29.719C394.651 29.4137 394.785 28.9488 394.785 28.3245C394.785 27.1168 394.213 26.5129 393.069 26.5129H392.345V25.4807ZM402.298 27.7297H403.405V28.762H402.298V31.0725H401.088V28.762H397.328V28.0168L401.026 21.1194H402.298V27.7297ZM398.668 27.7297H401.088V22.9993L398.668 27.7297ZM405.128 26.0823L405.559 21.1194H409.886V22.2883H406.577L406.345 25.0022C406.755 24.7151 407.197 24.5715 407.671 24.5715C408.446 24.5715 409.054 24.8723 409.496 25.4739C409.938 26.0754 410.159 26.8844 410.159 27.9006C410.159 28.9306 409.918 29.7395 409.435 30.3274C408.956 30.9153 408.298 31.2092 407.459 31.2092C406.712 31.2092 406.103 30.9654 405.634 30.4778C405.164 29.9902 404.896 29.3157 404.827 28.4543H405.962C406.03 29.024 406.192 29.4547 406.447 29.7463C406.707 30.0334 407.044 30.177 407.459 30.177C407.928 30.177 408.295 29.9742 408.56 29.5686C408.824 29.1584 408.956 28.607 408.956 27.9143C408.956 27.2626 408.812 26.7317 408.525 26.3215C408.243 25.9114 407.86 25.7063 407.377 25.7063C406.976 25.7063 406.655 25.8111 406.413 26.0208L406.092 26.342L405.128 26.0823Z" fill="white"/>
</g>
<rect x="361.431" y="10.4087" width="1.48611" height="6.83305" rx="0.743056" fill="white"/>
<g filter="url(#filter6_d_1_2580)">
<path d="M351.345 25.4807H352.117C352.614 25.4807 352.997 25.328 353.266 25.0227C353.535 24.7174 353.669 24.3004 353.669 23.7717C353.669 22.6051 353.218 22.0217 352.315 22.0217C351.882 22.0217 351.543 22.179 351.297 22.4934C351.051 22.8079 350.928 23.2203 350.928 23.7307H349.725C349.725 22.9332 349.966 22.2769 350.449 21.762C350.937 21.2424 351.559 20.9827 352.315 20.9827C353.099 20.9827 353.721 21.2288 354.182 21.7209C354.642 22.2086 354.872 22.9013 354.872 23.7991C354.872 24.2594 354.751 24.69 354.51 25.0911C354.273 25.4875 353.963 25.7792 353.58 25.9661C354.519 26.3124 354.988 27.0894 354.988 28.2971C354.988 29.1858 354.74 29.8944 354.243 30.4231C353.751 30.9472 353.106 31.2092 352.309 31.2092C351.52 31.2092 350.882 30.9609 350.395 30.4641C349.911 29.9628 349.67 29.2906 349.67 28.4475H350.88C350.88 28.9762 351.007 29.3977 351.263 29.7122C351.518 30.0221 351.867 30.177 352.309 30.177C352.76 30.177 353.118 30.0243 353.382 29.719C353.651 29.4137 353.785 28.9488 353.785 28.3245C353.785 27.1168 353.213 26.5129 352.069 26.5129H351.345V25.4807ZM358.263 25.4807H359.035C359.532 25.4807 359.915 25.328 360.184 25.0227C360.452 24.7174 360.587 24.3004 360.587 23.7717C360.587 22.6051 360.136 22.0217 359.233 22.0217C358.8 22.0217 358.461 22.179 358.215 22.4934C357.969 22.8079 357.846 23.2203 357.846 23.7307H356.643C356.643 22.9332 356.884 22.2769 357.367 21.762C357.855 21.2424 358.477 20.9827 359.233 20.9827C360.017 20.9827 360.639 21.2288 361.1 21.7209C361.56 22.2086 361.79 22.9013 361.79 23.7991C361.79 24.2594 361.669 24.69 361.428 25.0911C361.191 25.4875 360.881 25.7792 360.498 25.9661C361.437 26.3124 361.906 27.0894 361.906 28.2971C361.906 29.1858 361.658 29.8944 361.161 30.4231C360.669 30.9472 360.024 31.2092 359.227 31.2092C358.438 31.2092 357.8 30.9609 357.312 30.4641C356.829 29.9628 356.588 29.2906 356.588 28.4475H357.798C357.798 28.9762 357.925 29.3977 358.181 29.7122C358.436 30.0221 358.785 30.177 359.227 30.177C359.678 30.177 360.035 30.0243 360.3 29.719C360.569 29.4137 360.703 28.9488 360.703 28.3245C360.703 27.1168 360.131 26.5129 358.987 26.5129H358.263V25.4807ZM368.954 26.8274C368.954 28.2948 368.74 29.3931 368.312 30.1223C367.883 30.8469 367.211 31.2092 366.295 31.2092C365.406 31.2092 364.743 30.8606 364.306 30.1633C363.868 29.4661 363.64 28.4179 363.622 27.0188V25.3098C363.622 23.856 363.836 22.7714 364.265 22.0559C364.698 21.3404 365.37 20.9827 366.281 20.9827C367.179 20.9827 367.842 21.3222 368.271 22.0012C368.703 22.6803 368.931 23.7079 368.954 25.0842V26.8274ZM367.744 25.0979C367.744 24.0452 367.628 23.2704 367.396 22.7737C367.163 22.2724 366.792 22.0217 366.281 22.0217C365.785 22.0217 365.42 22.2678 365.188 22.76C364.955 23.2476 364.834 23.9859 364.825 24.9749V27.0256C364.825 28.0738 364.946 28.8622 365.188 29.3909C365.429 29.915 365.798 30.177 366.295 30.177C366.787 30.177 367.149 29.9286 367.382 29.4319C367.614 28.9351 367.735 28.1764 367.744 27.1555V25.0979Z" fill="white"/>
</g>
<rect x="320.431" y="10.4087" width="1.48611" height="6.83305" rx="0.743056" fill="white"/>
<g filter="url(#filter7_d_1_2580)">
<path d="M310.345 25.4807H311.117C311.614 25.4807 311.997 25.328 312.266 25.0227C312.535 24.7174 312.669 24.3004 312.669 23.7717C312.669 22.6051 312.218 22.0217 311.315 22.0217C310.882 22.0217 310.543 22.179 310.297 22.4934C310.051 22.8079 309.928 23.2203 309.928 23.7307H308.725C308.725 22.9332 308.966 22.2769 309.449 21.762C309.937 21.2424 310.559 20.9827 311.315 20.9827C312.099 20.9827 312.721 21.2288 313.182 21.7209C313.642 22.2086 313.872 22.9013 313.872 23.7991C313.872 24.2594 313.751 24.69 313.51 25.0911C313.273 25.4875 312.963 25.7792 312.58 25.9661C313.519 26.3124 313.988 27.0894 313.988 28.2971C313.988 29.1858 313.74 29.8944 313.243 30.4231C312.751 30.9472 312.106 31.2092 311.309 31.2092C310.52 31.2092 309.882 30.9609 309.395 30.4641C308.911 29.9628 308.67 29.2906 308.67 28.4475H309.88C309.88 28.9762 310.007 29.3977 310.263 29.7122C310.518 30.0221 310.867 30.177 311.309 30.177C311.76 30.177 312.118 30.0243 312.382 29.719C312.651 29.4137 312.785 28.9488 312.785 28.3245C312.785 27.1168 312.213 26.5129 311.069 26.5129H310.345V25.4807ZM319.32 31.0725H318.104V22.6438L316.012 23.5803V22.4319L319.129 21.0715H319.32V31.0725ZM323.128 26.0823L323.559 21.1194H327.886V22.2883H324.577L324.345 25.0022C324.755 24.7151 325.197 24.5715 325.671 24.5715C326.446 24.5715 327.054 24.8723 327.496 25.4739C327.938 26.0754 328.159 26.8844 328.159 27.9006C328.159 28.9306 327.918 29.7395 327.435 30.3274C326.956 30.9153 326.298 31.2092 325.459 31.2092C324.712 31.2092 324.103 30.9654 323.634 30.4778C323.164 29.9902 322.896 29.3157 322.827 28.4543H323.962C324.03 29.024 324.192 29.4547 324.447 29.7463C324.707 30.0334 325.044 30.177 325.459 30.177C325.928 30.177 326.295 29.9742 326.56 29.5686C326.824 29.1584 326.956 28.607 326.956 27.9143C326.956 27.2626 326.812 26.7317 326.525 26.3215C326.243 25.9114 325.86 25.7063 325.377 25.7063C324.976 25.7063 324.655 25.8111 324.413 26.0208L324.092 26.342L323.128 26.0823Z" fill="white"/>
</g>
<rect x="279.431" y="10.4087" width="1.48611" height="6.83305" rx="0.743056" fill="white"/>
<g filter="url(#filter8_d_1_2580)">
<path d="M266.786 35.4517H264.776V27.1733H261.823V35.4517H259.813V25.4985H266.786V35.4517ZM273.889 35.4517H271.954V32.6147H270.252V35.4517H268.311V28.0552H270.252V31.0151H271.954V28.0552H273.889V35.4517ZM275.461 34.4673C275.461 34.1574 275.563 33.9022 275.769 33.7017C275.978 33.5011 276.249 33.4009 276.582 33.4009C276.906 33.4009 277.174 33.5011 277.389 33.7017C277.603 33.8976 277.71 34.1528 277.71 34.4673C277.71 34.7863 277.601 35.0438 277.382 35.2397C277.168 35.4312 276.901 35.5269 276.582 35.5269C276.258 35.5269 275.99 35.4289 275.775 35.2329C275.566 35.0369 275.461 34.7817 275.461 34.4673ZM283.459 28.2397C283.459 27.8752 283.356 27.5835 283.151 27.3647C282.951 27.146 282.677 27.0366 282.331 27.0366C282.026 27.0366 281.775 27.1437 281.579 27.3579C281.388 27.5675 281.292 27.8478 281.292 28.1987H279.282C279.282 27.6473 279.414 27.1574 279.679 26.729C279.948 26.2961 280.317 25.9611 280.786 25.7241C281.256 25.4871 281.771 25.3687 282.331 25.3687C283.32 25.3687 284.09 25.617 284.642 26.1138C285.198 26.606 285.476 27.3009 285.476 28.1987C285.476 28.6545 285.359 29.0715 285.127 29.4497C284.899 29.8234 284.585 30.1196 284.184 30.3384C284.639 30.5298 284.99 30.8215 285.236 31.2134C285.482 31.6007 285.605 32.0838 285.605 32.6626C285.605 33.5604 285.307 34.2713 284.71 34.7954C284.113 35.3195 283.32 35.5815 282.331 35.5815C281.729 35.5815 281.185 35.4653 280.697 35.2329C280.214 35.0005 279.836 34.6678 279.562 34.2349C279.294 33.8019 279.159 33.2869 279.159 32.6899H281.176C281.176 33.0317 281.283 33.3234 281.497 33.5649C281.711 33.8065 281.989 33.9272 282.331 33.9272C282.714 33.9272 283.019 33.8065 283.247 33.5649C283.475 33.3234 283.589 33.0112 283.589 32.6284C283.589 32.1134 283.491 31.7443 283.295 31.521C283.099 31.2977 282.814 31.186 282.44 31.186H281.422V29.5659H282.447C283.122 29.5614 283.459 29.1193 283.459 28.2397ZM289.44 30.2495L290.302 28.0552H292.353L290.664 31.6714L292.414 35.4517H290.356L289.447 33.1343L288.545 35.4517H286.48L288.23 31.6714L286.556 28.0552H288.613L289.44 30.2495ZM293.467 34.4673C293.467 34.1574 293.569 33.9022 293.774 33.7017C293.984 33.5011 294.255 33.4009 294.588 33.4009C294.911 33.4009 295.18 33.5011 295.395 33.7017C295.609 33.8976 295.716 34.1528 295.716 34.4673C295.716 34.7863 295.606 35.0438 295.388 35.2397C295.174 35.4312 294.907 35.5269 294.588 35.5269C294.264 35.5269 293.995 35.4289 293.781 35.2329C293.572 35.0369 293.467 34.7817 293.467 34.4673Z" fill="white"/>
</g>
<rect x="234.431" y="10.4087" width="1.48611" height="6.83305" rx="0.743056" fill="white"/>
<g filter="url(#filter9_d_1_2580)">
<path d="M228.364 31.0725H222.8V30.1633L225.637 26.4036C226.065 25.8248 226.361 25.3508 226.525 24.9817C226.694 24.608 226.778 24.2138 226.778 23.7991C226.778 23.2704 226.655 22.842 226.409 22.5139C226.163 22.1858 225.84 22.0217 225.438 22.0217C224.933 22.0217 224.541 22.1972 224.263 22.5481C223.989 22.8944 223.853 23.3958 223.853 24.052H222.643C222.643 23.136 222.893 22.3954 223.395 21.8303C223.896 21.2652 224.577 20.9827 225.438 20.9827C226.231 20.9827 226.856 21.2265 227.312 21.7141C227.767 22.1972 227.995 22.842 227.995 23.6487C227.995 24.6331 227.482 25.7974 226.457 27.1418L224.242 30.0403H228.364V31.0725ZM234.838 23.717C234.838 24.2138 234.726 24.6558 234.503 25.0432C234.284 25.4306 233.988 25.7336 233.614 25.9524C234.056 26.1803 234.403 26.5084 234.653 26.9368C234.904 27.3606 235.029 27.8437 235.029 28.386C235.029 29.2428 234.785 29.9286 234.298 30.4436C233.815 30.954 233.172 31.2092 232.37 31.2092C231.568 31.2092 230.923 30.954 230.436 30.4436C229.952 29.9286 229.711 29.2428 229.711 28.386C229.711 27.8391 229.834 27.3515 230.08 26.9231C230.331 26.4902 230.67 26.1643 231.099 25.9456C230.725 25.7268 230.431 25.426 230.217 25.0432C230.003 24.6558 229.896 24.2138 229.896 23.717C229.896 22.8785 230.121 22.2131 230.572 21.7209C231.028 21.2288 231.627 20.9827 232.37 20.9827C233.108 20.9827 233.703 21.2265 234.154 21.7141C234.61 22.2017 234.838 22.8694 234.838 23.717ZM233.819 28.3586C233.819 27.789 233.685 27.3333 233.416 26.9915C233.147 26.6451 232.794 26.4719 232.356 26.4719C231.91 26.4719 231.557 26.6451 231.297 26.9915C231.042 27.3378 230.914 27.7935 230.914 28.3586C230.914 28.9329 231.039 29.3795 231.29 29.6985C231.545 30.0175 231.905 30.177 232.37 30.177C232.835 30.177 233.193 30.0175 233.443 29.6985C233.694 29.3795 233.819 28.9329 233.819 28.3586ZM233.635 23.7375C233.635 23.2317 233.516 22.8193 233.279 22.5002C233.042 22.1812 232.739 22.0217 232.37 22.0217C231.983 22.0217 231.675 22.179 231.447 22.4934C231.219 22.8079 231.105 23.2226 231.105 23.7375C231.105 24.2571 231.222 24.6695 231.454 24.9749C231.687 25.2802 231.992 25.4329 232.37 25.4329C232.757 25.4329 233.065 25.2779 233.293 24.968C233.521 24.6581 233.635 24.248 233.635 23.7375ZM237.128 26.0823L237.559 21.1194H241.886V22.2883H238.577L238.345 25.0022C238.755 24.7151 239.197 24.5715 239.671 24.5715C240.446 24.5715 241.054 24.8723 241.496 25.4739C241.938 26.0754 242.159 26.8844 242.159 27.9006C242.159 28.9306 241.918 29.7395 241.435 30.3274C240.956 30.9153 240.298 31.2092 239.459 31.2092C238.712 31.2092 238.103 30.9654 237.634 30.4778C237.164 29.9902 236.896 29.3157 236.827 28.4543H237.962C238.03 29.024 238.192 29.4547 238.447 29.7463C238.707 30.0334 239.044 30.177 239.459 30.177C239.928 30.177 240.295 29.9742 240.56 29.5686C240.824 29.1584 240.956 28.607 240.956 27.9143C240.956 27.2626 240.812 26.7317 240.525 26.3215C240.243 25.9114 239.86 25.7063 239.377 25.7063C238.976 25.7063 238.655 25.8111 238.413 26.0208L238.092 26.342L237.128 26.0823Z" fill="white"/>
</g>
<rect x="190.431" y="10.4087" width="1.48611" height="6.83305" rx="0.743056" fill="white"/>
<g filter="url(#filter10_d_1_2580)">
<path d="M184.364 31.0725H178.8V30.1633L181.637 26.4036C182.065 25.8248 182.361 25.3508 182.525 24.9817C182.694 24.608 182.778 24.2138 182.778 23.7991C182.778 23.2704 182.655 22.842 182.409 22.5139C182.163 22.1858 181.84 22.0217 181.438 22.0217C180.933 22.0217 180.541 22.1972 180.263 22.5481C179.989 22.8944 179.853 23.3958 179.853 24.052H178.643C178.643 23.136 178.893 22.3954 179.395 21.8303C179.896 21.2652 180.577 20.9827 181.438 20.9827C182.231 20.9827 182.856 21.2265 183.312 21.7141C183.767 22.1972 183.995 22.842 183.995 23.6487C183.995 24.6331 183.482 25.7974 182.457 27.1418L180.242 30.0403H184.364V31.0725ZM189.929 21.1125V22.1858H189.73C188.924 22.204 188.293 22.4775 187.837 23.0061C187.381 23.5302 187.119 24.3209 187.051 25.3782C187.493 24.8222 188.058 24.5442 188.746 24.5442C189.48 24.5442 190.061 24.8472 190.489 25.4534C190.922 26.0549 191.139 26.8456 191.139 27.8254C191.139 28.8691 190.899 29.6939 190.421 30.3C189.947 30.9062 189.309 31.2092 188.507 31.2092C187.7 31.2092 187.051 30.8515 186.559 30.136C186.066 29.4205 185.82 28.4703 185.82 27.2854V26.8C185.82 25.4329 185.968 24.3437 186.265 23.5325C186.561 22.7213 186.996 22.1197 187.57 21.7278C188.149 21.3313 188.867 21.1262 189.724 21.1125H189.929ZM188.541 25.5969C188.213 25.5969 187.91 25.7222 187.632 25.9729C187.354 26.2236 187.153 26.5426 187.03 26.9299V27.429C187.03 28.2356 187.172 28.8941 187.454 29.4045C187.741 29.9104 188.092 30.1633 188.507 30.1633C188.958 30.1633 189.311 29.956 189.566 29.5413C189.822 29.122 189.949 28.5706 189.949 27.887C189.949 27.2125 189.822 26.6633 189.566 26.2395C189.311 25.8111 188.969 25.5969 188.541 25.5969ZM197.954 26.8274C197.954 28.2948 197.74 29.3931 197.312 30.1223C196.883 30.8469 196.211 31.2092 195.295 31.2092C194.406 31.2092 193.743 30.8606 193.306 30.1633C192.868 29.4661 192.64 28.4179 192.622 27.0188V25.3098C192.622 23.856 192.836 22.7714 193.265 22.0559C193.698 21.3404 194.37 20.9827 195.281 20.9827C196.179 20.9827 196.842 21.3222 197.271 22.0012C197.703 22.6803 197.931 23.7079 197.954 25.0842V26.8274ZM196.744 25.0979C196.744 24.0452 196.628 23.2704 196.396 22.7737C196.163 22.2724 195.792 22.0217 195.281 22.0217C194.785 22.0217 194.42 22.2678 194.188 22.76C193.955 23.2476 193.834 23.9859 193.825 24.9749V27.0256C193.825 28.0738 193.946 28.8622 194.188 29.3909C194.429 29.915 194.798 30.177 195.295 30.177C195.787 30.177 196.149 29.9286 196.382 29.4319C196.614 28.9351 196.735 28.1764 196.744 27.1555V25.0979Z" fill="white"/>
</g>
<rect x="146.431" y="10.4087" width="1.48611" height="6.83305" rx="0.743056" fill="white"/>
<g filter="url(#filter11_d_1_2580)">
<path d="M140.364 31.0725H134.8V30.1633L137.637 26.4036C138.065 25.8248 138.361 25.3508 138.525 24.9817C138.694 24.608 138.778 24.2138 138.778 23.7991C138.778 23.2704 138.655 22.842 138.409 22.5139C138.163 22.1858 137.84 22.0217 137.438 22.0217C136.933 22.0217 136.541 22.1972 136.263 22.5481C135.989 22.8944 135.853 23.3958 135.853 24.052H134.643C134.643 23.136 134.893 22.3954 135.395 21.8303C135.896 21.2652 136.577 20.9827 137.438 20.9827C138.231 20.9827 138.856 21.2265 139.312 21.7141C139.767 22.1972 139.995 22.842 139.995 23.6487C139.995 24.6331 139.482 25.7974 138.457 27.1418L136.242 30.0403H140.364V31.0725ZM146.298 27.7297H147.405V28.762H146.298V31.0725H145.088V28.762H141.328V28.0168L145.026 21.1194H146.298V27.7297ZM142.668 27.7297H145.088V22.9993L142.668 27.7297ZM149.128 26.0823L149.559 21.1194H153.886V22.2883H150.577L150.345 25.0022C150.755 24.7151 151.197 24.5715 151.671 24.5715C152.446 24.5715 153.054 24.8723 153.496 25.4739C153.938 26.0754 154.159 26.8844 154.159 27.9006C154.159 28.9306 153.918 29.7395 153.435 30.3274C152.956 30.9153 152.298 31.2092 151.459 31.2092C150.712 31.2092 150.103 30.9654 149.634 30.4778C149.164 29.9902 148.896 29.3157 148.827 28.4543H149.962C150.03 29.024 150.192 29.4547 150.447 29.7463C150.707 30.0334 151.044 30.177 151.459 30.177C151.928 30.177 152.295 29.9742 152.56 29.5686C152.824 29.1584 152.956 28.607 152.956 27.9143C152.956 27.2626 152.812 26.7317 152.525 26.3215C152.243 25.9114 151.86 25.7063 151.377 25.7063C150.976 25.7063 150.655 25.8111 150.413 26.0208L150.092 26.342L149.128 26.0823Z" fill="white"/>
</g>
<rect x="95.4305" y="11.6128" width="1.48611" height="6.83305" rx="0.743056" fill="white"/>
<g filter="url(#filter12_d_1_2580)">
<path d="M79.7852 28.2395C79.7852 27.8749 79.6826 27.5833 79.4775 27.3645C79.277 27.1458 79.0036 27.0364 78.6572 27.0364C78.3519 27.0364 78.1012 27.1435 77.9053 27.3577C77.7139 27.5673 77.6182 27.8476 77.6182 28.1985H75.6084C75.6084 27.6471 75.7406 27.1571 76.0049 26.7288C76.2738 26.2958 76.6429 25.9609 77.1123 25.7239C77.5817 25.4869 78.0967 25.3684 78.6572 25.3684C79.6462 25.3684 80.4163 25.6168 80.9678 26.1135C81.5238 26.6057 81.8018 27.3007 81.8018 28.1985C81.8018 28.6542 81.6855 29.0712 81.4531 29.4495C81.2253 29.8232 80.9108 30.1194 80.5098 30.3381C80.9655 30.5295 81.3164 30.8212 81.5625 31.2131C81.8086 31.6005 81.9316 32.0836 81.9316 32.6624C81.9316 33.5601 81.6331 34.2711 81.0361 34.7952C80.4391 35.3193 79.6462 35.5813 78.6572 35.5813C78.0557 35.5813 77.5111 35.4651 77.0234 35.2327C76.5404 35.0002 76.1621 34.6676 75.8887 34.2346C75.6198 33.8017 75.4854 33.2867 75.4854 32.6897H77.502C77.502 33.0315 77.609 33.3232 77.8232 33.5647C78.0374 33.8062 78.3154 33.927 78.6572 33.927C79.04 33.927 79.3454 33.8062 79.5732 33.5647C79.8011 33.3232 79.915 33.011 79.915 32.6282C79.915 32.1132 79.8171 31.7441 79.6211 31.5208C79.4251 31.2974 79.1403 31.1858 78.7666 31.1858H77.748V29.5657H78.7734C79.4479 29.5611 79.7852 29.1191 79.7852 28.2395ZM86.8057 35.4514C86.751 35.3375 86.6963 35.1461 86.6416 34.8772C86.2952 35.3512 85.8258 35.5881 85.2334 35.5881C84.6136 35.5881 84.0986 35.3831 83.6885 34.9729C83.2829 34.5627 83.0801 34.0318 83.0801 33.3801C83.0801 32.6054 83.3262 32.0061 83.8184 31.5823C84.3151 31.1584 85.0283 30.942 85.958 30.9329H86.5459V30.3381C86.5459 30.0055 86.4889 29.7708 86.375 29.634C86.2611 29.4973 86.0947 29.429 85.876 29.429C85.3929 29.429 85.1514 29.7115 85.1514 30.2766H83.2168C83.2168 29.593 83.472 29.0302 83.9824 28.5881C84.4974 28.1415 85.1468 27.9182 85.9307 27.9182C86.7419 27.9182 87.3685 28.1301 87.8105 28.554C88.2572 28.9732 88.4805 29.5748 88.4805 30.3586V33.8381C88.4896 34.4762 88.5807 34.9752 88.7539 35.3352V35.4514H86.8057ZM85.6641 34.0706C85.8783 34.0706 86.0605 34.0273 86.2109 33.9407C86.3613 33.8541 86.473 33.7515 86.5459 33.6331V32.095H86.0811C85.7529 32.095 85.4932 32.1998 85.3018 32.4094C85.1149 32.6191 85.0215 32.8993 85.0215 33.2502C85.0215 33.7971 85.2357 34.0706 85.6641 34.0706ZM92.3564 30.2493L93.2178 28.0549H95.2686L93.5801 31.6711L95.3301 35.4514H93.2725L92.3633 33.134L91.4609 35.4514H89.3965L91.1465 31.6711L89.4717 28.0549H91.5293L92.3564 30.2493ZM98.2559 35.4514H96.3145V28.0549H98.2559V35.4514ZM96.2256 26.1409C96.2256 25.8401 96.3213 25.594 96.5127 25.4026C96.7041 25.2112 96.9593 25.1155 97.2783 25.1155C97.5973 25.1155 97.8525 25.2112 98.0439 25.4026C98.2354 25.594 98.3311 25.8401 98.3311 26.1409C98.3311 26.4371 98.2354 26.6832 98.0439 26.8792C97.8571 27.0751 97.6019 27.1731 97.2783 27.1731C96.9548 27.1731 96.6973 27.0751 96.5059 26.8792C96.319 26.6832 96.2256 26.4371 96.2256 26.1409ZM99.9033 33.845C100.222 33.4804 100.45 33.1135 100.587 32.7444C100.724 32.3752 100.803 31.858 100.826 31.1926L100.881 28.0549H105.7V33.845H106.678V37.6731H104.743V35.4514H101.332V37.6731H99.3496V33.845H99.9033ZM102.05 33.845H103.772V29.7024H102.788L102.781 30.4338C102.768 31.8466 102.524 32.9836 102.05 33.845Z" fill="white"/>
</g>
<rect x="719.431" y="9" width="1.48611" height="6.24126" fill="white"/>
<g filter="url(#filter13_d_1_2580)">
<path d="M714.345 22.7832H715.117C715.614 22.7832 715.997 22.6305 716.266 22.3252C716.535 22.0199 716.669 21.6029 716.669 21.0742C716.669 19.9076 716.218 19.3242 715.315 19.3242C714.882 19.3242 714.543 19.4814 714.297 19.7959C714.051 20.1104 713.928 20.5228 713.928 21.0332H712.725C712.725 20.2357 712.966 19.5794 713.449 19.0645C713.937 18.5449 714.559 18.2852 715.315 18.2852C716.099 18.2852 716.721 18.5312 717.182 19.0234C717.642 19.5111 717.872 20.2038 717.872 21.1016C717.872 21.5618 717.751 21.9925 717.51 22.3936C717.273 22.79 716.963 23.0817 716.58 23.2686C717.519 23.6149 717.988 24.3919 717.988 25.5996C717.988 26.4883 717.74 27.1969 717.243 27.7256C716.751 28.2497 716.106 28.5117 715.309 28.5117C714.52 28.5117 713.882 28.2633 713.395 27.7666C712.911 27.2653 712.67 26.5931 712.67 25.75H713.88C713.88 26.2786 714.007 26.7002 714.263 27.0146C714.518 27.3245 714.867 27.4795 715.309 27.4795C715.76 27.4795 716.118 27.3268 716.382 27.0215C716.651 26.7161 716.785 26.2513 716.785 25.627C716.785 24.4193 716.213 23.8154 715.069 23.8154H714.345V22.7832ZM720.21 23.3848L720.641 18.4219H724.968V19.5908H721.659L721.427 22.3047C721.837 22.0176 722.279 21.874 722.753 21.874C723.528 21.874 724.136 22.1748 724.578 22.7764C725.02 23.3779 725.241 24.1868 725.241 25.2031C725.241 26.2331 725 27.042 724.517 27.6299C724.038 28.2178 723.38 28.5117 722.541 28.5117C721.794 28.5117 721.185 28.2679 720.716 27.7803C720.246 27.2926 719.978 26.6182 719.909 25.7568H721.044C721.112 26.3265 721.274 26.7572 721.529 27.0488C721.789 27.3359 722.126 27.4795 722.541 27.4795C723.01 27.4795 723.377 27.2767 723.642 26.8711C723.906 26.4609 724.038 25.9095 724.038 25.2168C724.038 24.5651 723.895 24.0342 723.607 23.624C723.325 23.2139 722.942 23.0088 722.459 23.0088C722.058 23.0088 721.737 23.1136 721.495 23.3232L721.174 23.6445L720.21 23.3848Z" fill="white"/>
</g>
<rect x="762.431" y="9" width="1.48611" height="6.24126" fill="white"/>
<g filter="url(#filter14_d_1_2580)">
<path d="M760.38 24.6572H761.487V25.6895H760.38V28H759.17V25.6895H755.41V24.9443L759.108 18.0469H760.38V24.6572ZM756.75 24.6572H759.17V19.9268L756.75 24.6572ZM763.21 23.0098L763.641 18.0469H767.968V19.2158H764.659L764.427 21.9297C764.837 21.6426 765.279 21.499 765.753 21.499C766.528 21.499 767.136 21.7998 767.578 22.4014C768.02 23.0029 768.241 23.8118 768.241 24.8281C768.241 25.8581 768 26.667 767.517 27.2549C767.038 27.8428 766.38 28.1367 765.541 28.1367C764.794 28.1367 764.185 27.8929 763.716 27.4053C763.246 26.9176 762.978 26.2432 762.909 25.3818H764.044C764.112 25.9515 764.274 26.3822 764.529 26.6738C764.789 26.9609 765.126 27.1045 765.541 27.1045C766.01 27.1045 766.377 26.9017 766.642 26.4961C766.906 26.0859 767.038 25.5345 767.038 24.8418C767.038 24.1901 766.895 23.6592 766.607 23.249C766.325 22.8389 765.942 22.6338 765.459 22.6338C765.058 22.6338 764.737 22.7386 764.495 22.9482L764.174 23.2695L763.21 23.0098Z" fill="white"/>
</g>
<path d="M433 25L425.206 5.25L440.794 5.25L433 25Z" fill="#00EBC1"/>
<path d="M433 0L440 8H426L433 0Z" fill="#00EBC1"/>
<defs>
<filter id="filter0_d_1_2580" x="440.93" y="24.4348" width="39.9766" height="12.8125" filterUnits="userSpaceOnUse" color-interpolation-filters="sRGB">
<feFlood flood-opacity="0" result="BackgroundImageFix"/>
<feColorMatrix in="SourceAlpha" type="matrix" values="0 0 0 0 0 0 0 0 0 0 0 0 0 0 0 0 0 0 127 0" result="hardAlpha"/>
<feOffset dy="1"/>
<feComposite in2="hardAlpha" operator="out"/>
<feColorMatrix type="matrix" values="0 0 0 0 0 0 0 0 0 0 0 0 0 0 0 0 0 0 0.85 0"/>
<feBlend mode="normal" in2="BackgroundImageFix" result="effect1_dropShadow_1_2580"/>
<feBlend mode="normal" in="SourceGraphic" in2="effect1_dropShadow_1_2580" result="shape"/>
</filter>
<filter id="filter1_d_1_2580" x="517.094" y="20.9963" width="11.9424" height="11.2266" filterUnits="userSpaceOnUse" color-interpolation-filters="sRGB">
<feFlood flood-opacity="0" result="BackgroundImageFix"/>
<feColorMatrix in="SourceAlpha" type="matrix" values="0 0 0 0 0 0 0 0 0 0 0 0 0 0 0 0 0 0 127 0" result="hardAlpha"/>
<feOffset dy="1"/>
<feComposite in2="hardAlpha" operator="out"/>
<feColorMatrix type="matrix" values="0 0 0 0 0 0 0 0 0 0 0 0 0 0 0 0 0 0 0.85 0"/>
<feBlend mode="normal" in2="BackgroundImageFix" result="effect1_dropShadow_1_2580"/>
<feBlend mode="normal" in="SourceGraphic" in2="effect1_dropShadow_1_2580" result="shape"/>
</filter>
<filter id="filter2_d_1_2580" x="558.094" y="21.0852" width="12.1475" height="11.1377" filterUnits="userSpaceOnUse" color-interpolation-filters="sRGB">
<feFlood flood-opacity="0" result="BackgroundImageFix"/>
<feColorMatrix in="SourceAlpha" type="matrix" values="0 0 0 0 0 0 0 0 0 0 0 0 0 0 0 0 0 0 127 0" result="hardAlpha"/>
<feOffset dy="1"/>
<feComposite in2="hardAlpha" operator="out"/>
<feColorMatrix type="matrix" values="0 0 0 0 0 0 0 0 0 0 0 0 0 0 0 0 0 0 0.85 0"/>
<feBlend mode="normal" in2="BackgroundImageFix" result="effect1_dropShadow_1_2580"/>
<feBlend mode="normal" in="SourceGraphic" in2="effect1_dropShadow_1_2580" result="shape"/>
</filter>
<filter id="filter3_d_1_2580" x="647.93" y="23.5117" width="38.8672" height="12.6875" filterUnits="userSpaceOnUse" color-interpolation-filters="sRGB">
<feFlood flood-opacity="0" result="BackgroundImageFix"/>
<feColorMatrix in="SourceAlpha" type="matrix" values="0 0 0 0 0 0 0 0 0 0 0 0 0 0 0 0 0 0 127 0" result="hardAlpha"/>
<feOffset dy="1"/>
<feComposite in2="hardAlpha" operator="out"/>
<feColorMatrix type="matrix" values="0 0 0 0 0 0 0 0 0 0 0 0 0 0 0 0 0 0 0.85 0"/>
<feBlend mode="normal" in2="BackgroundImageFix" result="effect1_dropShadow_1_2580"/>
<feBlend mode="normal" in="SourceGraphic" in2="effect1_dropShadow_1_2580" result="shape"/>
</filter>
<filter id="filter4_d_1_2580" x="596.67" y="22.2004" width="12.3662" height="11.2266" filterUnits="userSpaceOnUse" color-interpolation-filters="sRGB">
<feFlood flood-opacity="0" result="BackgroundImageFix"/>
<feColorMatrix in="SourceAlpha" type="matrix" values="0 0 0 0 0 0 0 0 0 0 0 0 0 0 0 0 0 0 127 0" result="hardAlpha"/>
<feOffset dy="1"/>
<feComposite in2="hardAlpha" operator="out"/>
<feColorMatrix type="matrix" values="0 0 0 0 0 0 0 0 0 0 0 0 0 0 0 0 0 0 0.85 0"/>
<feBlend mode="normal" in2="BackgroundImageFix" result="effect1_dropShadow_1_2580"/>
<feBlend mode="normal" in="SourceGraphic" in2="effect1_dropShadow_1_2580" result="shape"/>
</filter>
<filter id="filter5_d_1_2580" x="390.67" y="20.9827" width="19.4893" height="11.2266" filterUnits="userSpaceOnUse" color-interpolation-filters="sRGB">
<feFlood flood-opacity="0" result="BackgroundImageFix"/>
<feColorMatrix in="SourceAlpha" type="matrix" values="0 0 0 0 0 0 0 0 0 0 0 0 0 0 0 0 0 0 127 0" result="hardAlpha"/>
<feOffset dy="1"/>
<feComposite in2="hardAlpha" operator="out"/>
<feColorMatrix type="matrix" values="0 0 0 0 0 0 0 0 0 0 0 0 0 0 0 0 0 0 0.85 0"/>
<feBlend mode="normal" in2="BackgroundImageFix" result="effect1_dropShadow_1_2580"/>
<feBlend mode="normal" in="SourceGraphic" in2="effect1_dropShadow_1_2580" result="shape"/>
</filter>
<filter id="filter6_d_1_2580" x="349.67" y="20.9827" width="19.2842" height="11.2266" filterUnits="userSpaceOnUse" color-interpolation-filters="sRGB">
<feFlood flood-opacity="0" result="BackgroundImageFix"/>
<feColorMatrix in="SourceAlpha" type="matrix" values="0 0 0 0 0 0 0 0 0 0 0 0 0 0 0 0 0 0 127 0" result="hardAlpha"/>
<feOffset dy="1"/>
<feComposite in2="hardAlpha" operator="out"/>
<feColorMatrix type="matrix" values="0 0 0 0 0 0 0 0 0 0 0 0 0 0 0 0 0 0 0.85 0"/>
<feBlend mode="normal" in2="BackgroundImageFix" result="effect1_dropShadow_1_2580"/>
<feBlend mode="normal" in="SourceGraphic" in2="effect1_dropShadow_1_2580" result="shape"/>
</filter>
<filter id="filter7_d_1_2580" x="308.67" y="20.9827" width="19.4893" height="11.2266" filterUnits="userSpaceOnUse" color-interpolation-filters="sRGB">
<feFlood flood-opacity="0" result="BackgroundImageFix"/>
<feColorMatrix in="SourceAlpha" type="matrix" values="0 0 0 0 0 0 0 0 0 0 0 0 0 0 0 0 0 0 127 0" result="hardAlpha"/>
<feOffset dy="1"/>
<feComposite in2="hardAlpha" operator="out"/>
<feColorMatrix type="matrix" values="0 0 0 0 0 0 0 0 0 0 0 0 0 0 0 0 0 0 0.85 0"/>
<feBlend mode="normal" in2="BackgroundImageFix" result="effect1_dropShadow_1_2580"/>
<feBlend mode="normal" in="SourceGraphic" in2="effect1_dropShadow_1_2580" result="shape"/>
</filter>
<filter id="filter8_d_1_2580" x="259.813" y="25.3687" width="35.9023" height="11.2129" filterUnits="userSpaceOnUse" color-interpolation-filters="sRGB">
<feFlood flood-opacity="0" result="BackgroundImageFix"/>
<feColorMatrix in="SourceAlpha" type="matrix" values="0 0 0 0 0 0 0 0 0 0 0 0 0 0 0 0 0 0 127 0" result="hardAlpha"/>
<feOffset dy="1"/>
<feComposite in2="hardAlpha" operator="out"/>
<feColorMatrix type="matrix" values="0 0 0 0 0 0 0 0 0 0 0 0 0 0 0 0 0 0 0.85 0"/>
<feBlend mode="normal" in2="BackgroundImageFix" result="effect1_dropShadow_1_2580"/>
<feBlend mode="normal" in="SourceGraphic" in2="effect1_dropShadow_1_2580" result="shape"/>
</filter>
<filter id="filter9_d_1_2580" x="222.643" y="20.9827" width="19.5166" height="11.2266" filterUnits="userSpaceOnUse" color-interpolation-filters="sRGB">
<feFlood flood-opacity="0" result="BackgroundImageFix"/>
<feColorMatrix in="SourceAlpha" type="matrix" values="0 0 0 0 0 0 0 0 0 0 0 0 0 0 0 0 0 0 127 0" result="hardAlpha"/>
<feOffset dy="1"/>
<feComposite in2="hardAlpha" operator="out"/>
<feColorMatrix type="matrix" values="0 0 0 0 0 0 0 0 0 0 0 0 0 0 0 0 0 0 0.85 0"/>
<feBlend mode="normal" in2="BackgroundImageFix" result="effect1_dropShadow_1_2580"/>
<feBlend mode="normal" in="SourceGraphic" in2="effect1_dropShadow_1_2580" result="shape"/>
</filter>
<filter id="filter10_d_1_2580" x="178.643" y="20.9827" width="19.3115" height="11.2266" filterUnits="userSpaceOnUse" color-interpolation-filters="sRGB">
<feFlood flood-opacity="0" result="BackgroundImageFix"/>
<feColorMatrix in="SourceAlpha" type="matrix" values="0 0 0 0 0 0 0 0 0 0 0 0 0 0 0 0 0 0 127 0" result="hardAlpha"/>
<feOffset dy="1"/>
<feComposite in2="hardAlpha" operator="out"/>
<feColorMatrix type="matrix" values="0 0 0 0 0 0 0 0 0 0 0 0 0 0 0 0 0 0 0.85 0"/>
<feBlend mode="normal" in2="BackgroundImageFix" result="effect1_dropShadow_1_2580"/>
<feBlend mode="normal" in="SourceGraphic" in2="effect1_dropShadow_1_2580" result="shape"/>
</filter>
<filter id="filter11_d_1_2580" x="134.643" y="20.9827" width="19.5166" height="11.2266" filterUnits="userSpaceOnUse" color-interpolation-filters="sRGB">
<feFlood flood-opacity="0" result="BackgroundImageFix"/>
<feColorMatrix in="SourceAlpha" type="matrix" values="0 0 0 0 0 0 0 0 0 0 0 0 0 0 0 0 0 0 127 0" result="hardAlpha"/>
<feOffset dy="1"/>
<feComposite in2="hardAlpha" operator="out"/>
<feColorMatrix type="matrix" values="0 0 0 0 0 0 0 0 0 0 0 0 0 0 0 0 0 0 0.85 0"/>
<feBlend mode="normal" in2="BackgroundImageFix" result="effect1_dropShadow_1_2580"/>
<feBlend mode="normal" in="SourceGraphic" in2="effect1_dropShadow_1_2580" result="shape"/>
</filter>
<filter id="filter12_d_1_2580" x="75.4854" y="25.1155" width="31.1924" height="13.5576" filterUnits="userSpaceOnUse" color-interpolation-filters="sRGB">
<feFlood flood-opacity="0" result="BackgroundImageFix"/>
<feColorMatrix in="SourceAlpha" type="matrix" values="0 0 0 0 0 0 0 0 0 0 0 0 0 0 0 0 0 0 127 0" result="hardAlpha"/>
<feOffset dy="1"/>
<feComposite in2="hardAlpha" operator="out"/>
<feColorMatrix type="matrix" values="0 0 0 0 0 0 0 0 0 0 0 0 0 0 0 0 0 0 0.85 0"/>
<feBlend mode="normal" in2="BackgroundImageFix" result="effect1_dropShadow_1_2580"/>
<feBlend mode="normal" in="SourceGraphic" in2="effect1_dropShadow_1_2580" result="shape"/>
</filter>
<filter id="filter13_d_1_2580" x="712.67" y="18.2852" width="12.5713" height="11.2266" filterUnits="userSpaceOnUse" color-interpolation-filters="sRGB">
<feFlood flood-opacity="0" result="BackgroundImageFix"/>
<feColorMatrix in="SourceAlpha" type="matrix" values="0 0 0 0 0 0 0 0 0 0 0 0 0 0 0 0 0 0 127 0" result="hardAlpha"/>
<feOffset dy="1"/>
<feComposite in2="hardAlpha" operator="out"/>
<feColorMatrix type="matrix" values="0 0 0 0 0 0 0 0 0 0 0 0 0 0 0 0 0 0 0.85 0"/>
<feBlend mode="normal" in2="BackgroundImageFix" result="effect1_dropShadow_1_2580"/>
<feBlend mode="normal" in="SourceGraphic" in2="effect1_dropShadow_1_2580" result="shape"/>
</filter>
<filter id="filter14_d_1_2580" x="755.41" y="18.0469" width="12.8311" height="11.0898" filterUnits="userSpaceOnUse" color-interpolation-filters="sRGB">
<feFlood flood-opacity="0" result="BackgroundImageFix"/>
<feColorMatrix in="SourceAlpha" type="matrix" values="0 0 0 0 0 0 0 0 0 0 0 0 0 0 0 0 0 0 127 0" result="hardAlpha"/>
<feOffset dy="1"/>
<feComposite in2="hardAlpha" operator="out"/>
<feColorMatrix type="matrix" values="0 0 0 0 0 0 0 0 0 0 0 0 0 0 0 0 0 0 0.85 0"/>
<feBlend mode="normal" in2="BackgroundImageFix" result="effect1_dropShadow_1_2580"/>
<feBlend mode="normal" in="SourceGraphic" in2="effect1_dropShadow_1_2580" result="shape"/>
</filter>
<linearGradient id="paint0_linear_1_2580" x1="11.5" y1="28.0001" x2="838.5" y2="27.9999" gradientUnits="userSpaceOnUse">
<stop stop-opacity="0"/>
<stop offset="0.171875" stop-opacity="0.9"/>
<stop offset="0.416667"/>
<stop offset="0.5625"/>
<stop offset="0.84375" stop-opacity="0.9"/>
<stop offset="1" stop-opacity="0"/>
</linearGradient>
<linearGradient id="paint1_linear_1_2580" x1="11.5" y1="6.53334" x2="838.5" y2="6.53011" gradientUnits="userSpaceOnUse">
<stop stop-color="#00EBC1" stop-opacity="0"/>
<stop offset="0.171875" stop-color="#00EBC1" stop-opacity="0.9"/>
<stop offset="0.416667" stop-color="#00EBC1"/>
<stop offset="0.5625" stop-color="#00EBC1"/>
<stop offset="0.84375" stop-color="#00EBC1" stop-opacity="0.9"/>
<stop offset="1" stop-color="#00EBC1" stop-opacity="0"/>
</linearGradient>
</defs>
</svg>
