<svg preserveAspectRatio="none" width="212" height="45" viewBox="0 0 212 45" fill="none" xmlns="http://www.w3.org/2000/svg">
<path d="M12.5526 45L0 32.3083L2.79353e-06 0L199.447 7.14164e-06L212 12.6917V45L12.5526 45Z" fill="#29D6B6"/>
<g opacity="0.25">
<mask id="mask0_0_2399" style="mask-type:alpha" maskUnits="userSpaceOnUse" x="0" y="1" width="212" height="27">
<path d="M12.5526 27.5068L0 14.9542L2.79353e-06 1L199.447 1.00001L212 13.5526V27.5068L12.5526 27.5068Z" fill="#5F5F5F"/>
</mask>
<g mask="url(#mask0_0_2399)">
<path d="M198 1.43103H194C197.167 4.76436 203.6 11.431 204 11.431H208L198 1.43103Z" fill="url(#paint0_linear_0_2399)"/>
<path d="M191 1.43103H187C190.167 4.76436 196.6 11.431 197 11.431H201L191 1.43103Z" fill="url(#paint1_linear_0_2399)"/>
<path d="M184 1.43103H180C183.167 4.76436 189.6 11.431 190 11.431H194L184 1.43103Z" fill="url(#paint2_linear_0_2399)"/>
<path d="M177 1.43103H173C176.167 4.76436 182.6 11.431 183 11.431H187L177 1.43103Z" fill="url(#paint3_linear_0_2399)"/>
<path d="M170 1.43103H166C169.167 4.76436 175.6 11.431 176 11.431H180L170 1.43103Z" fill="url(#paint4_linear_0_2399)"/>
<path d="M163 1.43103H159C162.167 4.76436 168.6 11.431 169 11.431H173L163 1.43103Z" fill="url(#paint5_linear_0_2399)"/>
<path d="M156 1.43103H152C155.167 4.76436 161.6 11.431 162 11.431H166L156 1.43103Z" fill="url(#paint6_linear_0_2399)"/>
<path d="M149 1.43103H145C148.167 4.76436 154.6 11.431 155 11.431H159L149 1.43103Z" fill="url(#paint7_linear_0_2399)"/>
<path d="M142 1.43103H138C141.167 4.76436 147.6 11.431 148 11.431H152L142 1.43103Z" fill="url(#paint8_linear_0_2399)"/>
<path d="M135 1.43103H131C134.167 4.76436 140.6 11.431 141 11.431H145L135 1.43103Z" fill="url(#paint9_linear_0_2399)"/>
<path d="M128 1.43103H124C127.167 4.76436 133.6 11.431 134 11.431H138L128 1.43103Z" fill="url(#paint10_linear_0_2399)"/>
<path d="M121 1.43103H117C120.167 4.76436 126.6 11.431 127 11.431H131L121 1.43103Z" fill="url(#paint11_linear_0_2399)"/>
<path d="M114 1.43103H110C113.167 4.76436 119.6 11.431 120 11.431H124L114 1.43103Z" fill="url(#paint12_linear_0_2399)"/>
<path d="M107 1.43103H103C106.167 4.76436 112.6 11.431 113 11.431H117L107 1.43103Z" fill="url(#paint13_linear_0_2399)"/>
<path d="M99.9999 1.43103H95.9999C99.1666 4.76436 105.6 11.431 106 11.431H110L99.9999 1.43103Z" fill="url(#paint14_linear_0_2399)"/>
<path d="M92.9999 1.43103H88.9999C92.1666 4.76436 98.5999 11.431 98.9999 11.431H103L92.9999 1.43103Z" fill="url(#paint15_linear_0_2399)"/>
<path d="M85.9999 1.43103H81.9999C85.1666 4.76436 91.5999 11.431 91.9999 11.431H95.9999L85.9999 1.43103Z" fill="url(#paint16_linear_0_2399)"/>
<path d="M78.9999 1.43103H74.9999C78.1666 4.76436 84.5999 11.431 84.9999 11.431H88.9999L78.9999 1.43103Z" fill="url(#paint17_linear_0_2399)"/>
<path d="M71.9999 1.43103H67.9999C71.1666 4.76436 77.5999 11.431 77.9999 11.431H81.9999L71.9999 1.43103Z" fill="url(#paint18_linear_0_2399)"/>
<path d="M64.9999 1.43103H60.9999C64.1666 4.76436 70.5999 11.431 70.9999 11.431H74.9999L64.9999 1.43103Z" fill="url(#paint19_linear_0_2399)"/>
<path d="M57.9999 1.43103H53.9999C57.1666 4.76436 63.5999 11.431 63.9999 11.431H67.9999L57.9999 1.43103Z" fill="url(#paint20_linear_0_2399)"/>
<path d="M50.9999 1.43103H46.9999C50.1666 4.76436 56.5999 11.431 56.9999 11.431H60.9999L50.9999 1.43103Z" fill="url(#paint21_linear_0_2399)"/>
<path d="M43.9999 1.43103H39.9999C43.1666 4.76436 49.5999 11.431 49.9999 11.431H53.9999L43.9999 1.43103Z" fill="url(#paint22_linear_0_2399)"/>
<path d="M36.9999 1.43103H32.9999C36.1666 4.76436 42.5999 11.431 42.9999 11.431H46.9999L36.9999 1.43103Z" fill="url(#paint23_linear_0_2399)"/>
<path d="M29.9999 1.43103H25.9999C29.1666 4.76436 35.5999 11.431 35.9999 11.431H39.9999L29.9999 1.43103Z" fill="url(#paint24_linear_0_2399)"/>
<path d="M22.9999 1.43103H18.9999C22.1666 4.76436 28.5999 11.431 28.9999 11.431H32.9999L22.9999 1.43103Z" fill="url(#paint25_linear_0_2399)"/>
<path d="M15.9999 1.43103H11.9999C15.1666 4.76436 21.5999 11.431 21.9999 11.431H25.9999L15.9999 1.43103Z" fill="url(#paint26_linear_0_2399)"/>
<path d="M8.99994 1.43103H4.99994C8.16661 4.76436 14.5999 11.431 14.9999 11.431H18.9999L8.99994 1.43103Z" fill="url(#paint27_linear_0_2399)"/>
<path d="M1.99994 1.43103H-2.00006C1.16661 4.76436 7.59994 11.431 7.99994 11.431H11.9999L1.99994 1.43103Z" fill="url(#paint28_linear_0_2399)"/>
<path d="M-5.00006 1.43103H-9.00006C-5.83339 4.76436 0.599939 11.431 0.999939 11.431H4.99994L-5.00006 1.43103Z" fill="url(#paint29_linear_0_2399)"/>
</g>
</g>
<defs>
<linearGradient id="paint0_linear_0_2399" x1="201" y1="1.43103" x2="201" y2="9.93103" gradientUnits="userSpaceOnUse">
<stop stop-color="white"/>
<stop offset="1" stop-color="white" stop-opacity="0"/>
</linearGradient>
<linearGradient id="paint1_linear_0_2399" x1="194" y1="1.43103" x2="194" y2="9.93103" gradientUnits="userSpaceOnUse">
<stop stop-color="white"/>
<stop offset="1" stop-color="white" stop-opacity="0"/>
</linearGradient>
<linearGradient id="paint2_linear_0_2399" x1="187" y1="1.43103" x2="187" y2="9.93103" gradientUnits="userSpaceOnUse">
<stop stop-color="white"/>
<stop offset="1" stop-color="white" stop-opacity="0"/>
</linearGradient>
<linearGradient id="paint3_linear_0_2399" x1="180" y1="1.43103" x2="180" y2="9.93103" gradientUnits="userSpaceOnUse">
<stop stop-color="white"/>
<stop offset="1" stop-color="white" stop-opacity="0"/>
</linearGradient>
<linearGradient id="paint4_linear_0_2399" x1="173" y1="1.43103" x2="173" y2="9.93103" gradientUnits="userSpaceOnUse">
<stop stop-color="white"/>
<stop offset="1" stop-color="white" stop-opacity="0"/>
</linearGradient>
<linearGradient id="paint5_linear_0_2399" x1="166" y1="1.43103" x2="166" y2="9.93103" gradientUnits="userSpaceOnUse">
<stop stop-color="white"/>
<stop offset="1" stop-color="white" stop-opacity="0"/>
</linearGradient>
<linearGradient id="paint6_linear_0_2399" x1="159" y1="1.43103" x2="159" y2="9.93103" gradientUnits="userSpaceOnUse">
<stop stop-color="white"/>
<stop offset="1" stop-color="white" stop-opacity="0"/>
</linearGradient>
<linearGradient id="paint7_linear_0_2399" x1="152" y1="1.43103" x2="152" y2="9.93103" gradientUnits="userSpaceOnUse">
<stop stop-color="white"/>
<stop offset="1" stop-color="white" stop-opacity="0"/>
</linearGradient>
<linearGradient id="paint8_linear_0_2399" x1="145" y1="1.43103" x2="145" y2="9.93103" gradientUnits="userSpaceOnUse">
<stop stop-color="white"/>
<stop offset="1" stop-color="white" stop-opacity="0"/>
</linearGradient>
<linearGradient id="paint9_linear_0_2399" x1="138" y1="1.43103" x2="138" y2="9.93103" gradientUnits="userSpaceOnUse">
<stop stop-color="white"/>
<stop offset="1" stop-color="white" stop-opacity="0"/>
</linearGradient>
<linearGradient id="paint10_linear_0_2399" x1="131" y1="1.43103" x2="131" y2="9.93103" gradientUnits="userSpaceOnUse">
<stop stop-color="white"/>
<stop offset="1" stop-color="white" stop-opacity="0"/>
</linearGradient>
<linearGradient id="paint11_linear_0_2399" x1="124" y1="1.43103" x2="124" y2="9.93103" gradientUnits="userSpaceOnUse">
<stop stop-color="white"/>
<stop offset="1" stop-color="white" stop-opacity="0"/>
</linearGradient>
<linearGradient id="paint12_linear_0_2399" x1="117" y1="1.43103" x2="117" y2="9.93103" gradientUnits="userSpaceOnUse">
<stop stop-color="white"/>
<stop offset="1" stop-color="white" stop-opacity="0"/>
</linearGradient>
<linearGradient id="paint13_linear_0_2399" x1="110" y1="1.43103" x2="110" y2="9.93103" gradientUnits="userSpaceOnUse">
<stop stop-color="white"/>
<stop offset="1" stop-color="white" stop-opacity="0"/>
</linearGradient>
<linearGradient id="paint14_linear_0_2399" x1="103" y1="1.43103" x2="103" y2="9.93103" gradientUnits="userSpaceOnUse">
<stop stop-color="white"/>
<stop offset="1" stop-color="white" stop-opacity="0"/>
</linearGradient>
<linearGradient id="paint15_linear_0_2399" x1="95.9999" y1="1.43103" x2="95.9999" y2="9.93103" gradientUnits="userSpaceOnUse">
<stop stop-color="white"/>
<stop offset="1" stop-color="white" stop-opacity="0"/>
</linearGradient>
<linearGradient id="paint16_linear_0_2399" x1="88.9999" y1="1.43103" x2="88.9999" y2="9.93103" gradientUnits="userSpaceOnUse">
<stop stop-color="white"/>
<stop offset="1" stop-color="white" stop-opacity="0"/>
</linearGradient>
<linearGradient id="paint17_linear_0_2399" x1="81.9999" y1="1.43103" x2="81.9999" y2="9.93103" gradientUnits="userSpaceOnUse">
<stop stop-color="white"/>
<stop offset="1" stop-color="white" stop-opacity="0"/>
</linearGradient>
<linearGradient id="paint18_linear_0_2399" x1="74.9999" y1="1.43103" x2="74.9999" y2="9.93103" gradientUnits="userSpaceOnUse">
<stop stop-color="white"/>
<stop offset="1" stop-color="white" stop-opacity="0"/>
</linearGradient>
<linearGradient id="paint19_linear_0_2399" x1="67.9999" y1="1.43103" x2="67.9999" y2="9.93103" gradientUnits="userSpaceOnUse">
<stop stop-color="white"/>
<stop offset="1" stop-color="white" stop-opacity="0"/>
</linearGradient>
<linearGradient id="paint20_linear_0_2399" x1="60.9999" y1="1.43103" x2="60.9999" y2="9.93103" gradientUnits="userSpaceOnUse">
<stop stop-color="white"/>
<stop offset="1" stop-color="white" stop-opacity="0"/>
</linearGradient>
<linearGradient id="paint21_linear_0_2399" x1="53.9999" y1="1.43103" x2="53.9999" y2="9.93103" gradientUnits="userSpaceOnUse">
<stop stop-color="white"/>
<stop offset="1" stop-color="white" stop-opacity="0"/>
</linearGradient>
<linearGradient id="paint22_linear_0_2399" x1="46.9999" y1="1.43103" x2="46.9999" y2="9.93103" gradientUnits="userSpaceOnUse">
<stop stop-color="white"/>
<stop offset="1" stop-color="white" stop-opacity="0"/>
</linearGradient>
<linearGradient id="paint23_linear_0_2399" x1="39.9999" y1="1.43103" x2="39.9999" y2="9.93103" gradientUnits="userSpaceOnUse">
<stop stop-color="white"/>
<stop offset="1" stop-color="white" stop-opacity="0"/>
</linearGradient>
<linearGradient id="paint24_linear_0_2399" x1="32.9999" y1="1.43103" x2="32.9999" y2="9.93103" gradientUnits="userSpaceOnUse">
<stop stop-color="white"/>
<stop offset="1" stop-color="white" stop-opacity="0"/>
</linearGradient>
<linearGradient id="paint25_linear_0_2399" x1="25.9999" y1="1.43103" x2="25.9999" y2="9.93103" gradientUnits="userSpaceOnUse">
<stop stop-color="white"/>
<stop offset="1" stop-color="white" stop-opacity="0"/>
</linearGradient>
<linearGradient id="paint26_linear_0_2399" x1="18.9999" y1="1.43103" x2="18.9999" y2="9.93103" gradientUnits="userSpaceOnUse">
<stop stop-color="white"/>
<stop offset="1" stop-color="white" stop-opacity="0"/>
</linearGradient>
<linearGradient id="paint27_linear_0_2399" x1="11.9999" y1="1.43103" x2="11.9999" y2="9.93103" gradientUnits="userSpaceOnUse">
<stop stop-color="white"/>
<stop offset="1" stop-color="white" stop-opacity="0"/>
</linearGradient>
<linearGradient id="paint28_linear_0_2399" x1="4.99994" y1="1.43103" x2="4.99994" y2="9.93103" gradientUnits="userSpaceOnUse">
<stop stop-color="white"/>
<stop offset="1" stop-color="white" stop-opacity="0"/>
</linearGradient>
<linearGradient id="paint29_linear_0_2399" x1="-2.00006" y1="1.43103" x2="-2.00006" y2="9.93103" gradientUnits="userSpaceOnUse">
<stop stop-color="white"/>
<stop offset="1" stop-color="white" stop-opacity="0"/>
</linearGradient>
</defs>
</svg>
