<svg preserveAspectRatio="none" width="85" height="13" viewBox="0 0 85 13" fill="none" xmlns="http://www.w3.org/2000/svg">
<path d="M82.9 2.18867L83.5 1.38867L82.5 1.38867L9 1.38867L8.75 1.38867L8.6 1.58867L1.6 10.922L1 11.722L2 11.722L75.5 11.722L75.75 11.722L75.9 11.522L82.9 2.18867Z" fill="black" stroke="#0DAA8E"/>
<path d="M8.99999 3.05518L8.99999 10.0552" stroke="white" stroke-opacity="0.2" stroke-width="0.5" stroke-linecap="round"/>
<path d="M11.2001 3.05518L11.2001 10.0552" stroke="white" stroke-opacity="0.2" stroke-width="0.5" stroke-linecap="round"/>
<path d="M13.3997 3.05518L13.3997 10.0552" stroke="white" stroke-opacity="0.2" stroke-width="0.5" stroke-linecap="round"/>
<path d="M15.5996 3.05518L15.5996 10.0552" stroke="white" stroke-opacity="0.2" stroke-width="0.5" stroke-linecap="round"/>
<path d="M17.7997 3.05518L17.7997 10.0552" stroke="white" stroke-opacity="0.2" stroke-width="0.5" stroke-linecap="round"/>
<path d="M19.9999 3.05518L19.9999 10.0552" stroke="white" stroke-opacity="0.2" stroke-width="0.5" stroke-linecap="round"/>
<path d="M22.1995 3.05518L22.1995 10.0552" stroke="white" stroke-opacity="0.2" stroke-width="0.5" stroke-linecap="round"/>
<path d="M24.4001 3.05518L24.4001 10.0552" stroke="white" stroke-opacity="0.2" stroke-width="0.5" stroke-linecap="round"/>
<path d="M26.5997 3.05518L26.5997 10.0552" stroke="white" stroke-opacity="0.2" stroke-width="0.5" stroke-linecap="round"/>
<path d="M28.7999 3.05518L28.7999 10.0552" stroke="white" stroke-opacity="0.2" stroke-width="0.5" stroke-linecap="round"/>
<path d="M30.9995 3.05518L30.9995 10.0552" stroke="white" stroke-opacity="0.2" stroke-width="0.5" stroke-linecap="round"/>
<path d="M33.1999 3.05518L33.1999 10.0552" stroke="white" stroke-opacity="0.2" stroke-width="0.5" stroke-linecap="round"/>
<path d="M35.4 3.05518L35.4 10.0552" stroke="white" stroke-opacity="0.2" stroke-width="0.5" stroke-linecap="round"/>
<path d="M37.5999 3.05518L37.5999 10.0552" stroke="white" stroke-opacity="0.2" stroke-width="0.5" stroke-linecap="round"/>
<path d="M39.7995 3.05518L39.7995 10.0552" stroke="white" stroke-opacity="0.2" stroke-width="0.5" stroke-linecap="round"/>
<path d="M41.9994 3.05518L41.9994 10.0552" stroke="white" stroke-opacity="0.2" stroke-width="0.5" stroke-linecap="round"/>
<path d="M44.1997 3.05518L44.1997 10.0552" stroke="white" stroke-opacity="0.2" stroke-width="0.5" stroke-linecap="round"/>
<path d="M46.3999 3.05518L46.3999 10.0552" stroke="white" stroke-opacity="0.2" stroke-width="0.5" stroke-linecap="round"/>
<path d="M48.6 3.05518L48.6 10.0552" stroke="white" stroke-opacity="0.2" stroke-width="0.5" stroke-linecap="round"/>
<path d="M50.7996 3.05518L50.7996 10.0552" stroke="white" stroke-opacity="0.2" stroke-width="0.5" stroke-linecap="round"/>
<path d="M52.9997 3.05518L52.9997 10.0552" stroke="white" stroke-opacity="0.2" stroke-width="0.5" stroke-linecap="round"/>
<path d="M55.1996 3.05518L55.1996 10.0552" stroke="white" stroke-opacity="0.2" stroke-width="0.5" stroke-linecap="round"/>
<path d="M57.3997 3.05518L57.3997 10.0552" stroke="white" stroke-opacity="0.2" stroke-width="0.5" stroke-linecap="round"/>
<path d="M59.5999 3.05518L59.5999 10.0552" stroke="white" stroke-opacity="0.2" stroke-width="0.5" stroke-linecap="round"/>
<path d="M61.8 3.05518L61.8 10.0552" stroke="white" stroke-opacity="0.2" stroke-width="0.5" stroke-linecap="round"/>
<path d="M63.9999 3.05518L63.9999 10.0552" stroke="white" stroke-opacity="0.2" stroke-width="0.5" stroke-linecap="round"/>
<path d="M66.1997 3.05518L66.1997 10.0552" stroke="white" stroke-opacity="0.2" stroke-width="0.5" stroke-linecap="round"/>
<path d="M68.3994 3.05518L68.3994 10.0552" stroke="white" stroke-opacity="0.2" stroke-width="0.5" stroke-linecap="round"/>
<path d="M70.6 3.05518L70.6 10.0552" stroke="white" stroke-opacity="0.2" stroke-width="0.5" stroke-linecap="round"/>
<path d="M72.7996 3.05518L72.7996 10.0552" stroke="white" stroke-opacity="0.2" stroke-width="0.5" stroke-linecap="round"/>
<path d="M75 3.05518L75 10.0552" stroke="white" stroke-opacity="0.2" stroke-width="0.5" stroke-linecap="round"/>
</svg>
