<svg width="38" height="38" viewBox="0 0 38 38" fill="none" xmlns="http://www.w3.org/2000/svg">
<path fill-rule="evenodd" clip-rule="evenodd" d="M35.3791 26.9815L35.3791 28.6736L35.3791 38L0 38L1.07419e-06 14.0185L0.000322315 14.0185L0.000322241 12.3264L9.42424 3L35.3795 2.99999L35.3795 26.9815L35.3791 26.9815Z" fill="#0DAA8E"/>
<path fill-rule="evenodd" clip-rule="evenodd" d="M2.62086 11.0185L2.62086 9.32636L2.62087 -1.5299e-06L38 3.03889e-06L38 23.9815L37.9997 23.9815L37.9997 25.6736L28.5758 35L2.62054 35L2.62054 11.0185L2.62086 11.0185Z" fill="#0DAA8E"/>
<path d="M17.9033 22.2852H16.335V28H13.1768V12.3594H18.2148C19.7975 12.3594 21.0186 12.7712 21.8779 13.5947C22.7445 14.4111 23.1777 15.5749 23.1777 17.0859C23.1777 19.1628 22.4222 20.6165 20.9111 21.4473L23.6504 27.8496V28H20.2559L17.9033 22.2852ZM16.335 19.6533H18.1289C18.7591 19.6533 19.2318 19.4456 19.5469 19.0303C19.862 18.6077 20.0195 18.0456 20.0195 17.3438C20.0195 15.7754 19.4072 14.9912 18.1826 14.9912H16.335V19.6533Z" fill="white"/>
</svg>
