<svg width="238" height="21" viewBox="0 0 238 21" fill="none" xmlns="http://www.w3.org/2000/svg">
<path d="M0.75 0.75H222.614L236.543 20.25H0.75V0.75Z" fill="#021713" stroke="#0DAA8E" stroke-width="1.5" stroke-linecap="round"/>
<path d="M0 0H144V21H0V0Z" fill="#0DAA8E"/>
<path d="M12.2568 7.71973C12.2568 7.18652 12.1042 6.76497 11.7988 6.45508C11.498 6.14518 11.0788 5.99023 10.541 5.99023C10.0853 5.99023 9.70475 6.14974 9.39941 6.46875C9.09863 6.78776 8.94824 7.18652 8.94824 7.66504H7.69727C7.69727 6.84928 7.96842 6.1862 8.51074 5.67578C9.05306 5.16536 9.72982 4.91016 10.541 4.91016C11.4844 4.91016 12.2158 5.16081 12.7354 5.66211C13.2549 6.16341 13.5146 6.85612 13.5146 7.74023C13.5146 8.20052 13.3939 8.61979 13.1523 8.99805C12.9108 9.3763 12.5781 9.6748 12.1543 9.89355C13.1432 10.29 13.6377 11.0671 13.6377 12.2246C13.6377 13.127 13.3529 13.8379 12.7832 14.3574C12.2181 14.877 11.4707 15.1367 10.541 15.1367C10.14 15.1367 9.7526 15.0729 9.37891 14.9453C9.00977 14.8132 8.6862 14.6149 8.4082 14.3506C7.85221 13.8265 7.57422 13.1224 7.57422 12.2383H8.8252C8.8252 12.7578 8.9847 13.193 9.30371 13.5439C9.62728 13.8949 10.0397 14.0703 10.541 14.0703C11.1016 14.0703 11.5482 13.9062 11.8809 13.5781C12.2181 13.2454 12.3867 12.8034 12.3867 12.252C12.3867 11.0944 11.833 10.4997 10.7256 10.4678H9.7002V9.3877H10.6367C11.1654 9.3877 11.5664 9.24414 11.8398 8.95703C12.1178 8.66992 12.2568 8.25749 12.2568 7.71973ZM24.1609 12.4023L20.7977 12.4023L20.0252 15H18.74L21.9461 5.04687L23.0193 5.04687L26.2322 15H24.9471L24.1609 12.4023ZM21.1258 11.3223L23.8396 11.3223L22.4793 6.79687L21.1258 11.3223ZM38.3072 5.04687V15H37.0494V6.12695H34.2672L34.1168 10.3105C34.0621 11.5319 33.9459 12.4639 33.7682 13.1064C33.5904 13.749 33.3307 14.223 32.9889 14.5283C32.6471 14.8337 32.1982 14.9909 31.6422 15H31.2594V13.9268L31.4918 13.9131C31.8245 13.8857 32.0842 13.7581 32.2711 13.5303C32.4579 13.2979 32.5992 12.931 32.6949 12.4297C32.7906 11.9284 32.859 11.1628 32.9 10.1328L33.0641 5.04687L38.3072 5.04687ZM49.9242 5.04687H51.1752V15H49.9242V7.33008L46.0482 15L44.7904 15V5.04687H46.0482V12.7168L49.9242 5.04687ZM58.923 5.04687V13.9268H61.6232V5.04687H62.8674V13.9268H65.5471V5.04687L66.8049 5.04687V15H57.6652V5.04687L58.923 5.04687ZM78.3945 5.04687H79.6455V15L78.3945 15V7.33008L74.5186 15H73.2607V5.04687H74.5186V12.7168L78.3945 5.04687ZM92.5955 5.04687V15H91.3377V6.12695H88.5555L88.4051 10.3105C88.3504 11.5319 88.2342 12.4639 88.0564 13.1064C87.8787 13.749 87.6189 14.223 87.2771 14.5283C86.9353 14.8337 86.4865 14.9909 85.9305 15H85.5477V13.9268L85.7801 13.9131C86.1128 13.8857 86.3725 13.7581 86.5594 13.5303C86.7462 13.2979 86.8875 12.931 86.9832 12.4297C87.0789 11.9284 87.1473 11.1628 87.1883 10.1328L87.3523 5.04687L92.5955 5.04687ZM105.498 10.8984C105.498 12.2565 105.208 13.3024 104.629 14.0361C104.051 14.7699 103.228 15.1367 102.162 15.1367C101.136 15.1367 100.325 14.7812 99.7281 14.0703C99.1357 13.3548 98.8281 12.3454 98.8053 11.042V9.16895C98.8053 7.83822 99.0992 6.79687 99.6871 6.04492C100.275 5.28841 101.095 4.91016 102.148 4.91016C103.196 4.91016 104.012 5.27246 104.595 5.99707C105.183 6.71712 105.484 7.74707 105.498 9.08691V10.8984ZM104.247 9.15527C104.247 8.10254 104.074 7.32096 103.727 6.81055C103.385 6.29557 102.859 6.03809 102.148 6.03809C101.46 6.03809 100.938 6.29785 100.583 6.81738C100.232 7.33691 100.054 8.10254 100.049 9.11426V10.8984C100.049 11.9147 100.225 12.6895 100.576 13.2227C100.931 13.7559 101.46 14.0225 102.162 14.0225C102.864 14.0225 103.383 13.7764 103.72 13.2842C104.058 12.792 104.233 12.0378 104.247 11.0215V9.15527ZM117.873 11.8418C117.819 12.9082 117.518 13.724 116.971 14.2891C116.429 14.8542 115.661 15.1367 114.667 15.1367C113.669 15.1367 112.876 14.7585 112.288 14.002C111.701 13.2409 111.407 12.2109 111.407 10.9121V9.10742C111.407 7.81315 111.707 6.79004 112.309 6.03809C112.915 5.28613 113.74 4.91016 114.784 4.91016C115.745 4.91016 116.488 5.19954 117.012 5.77832C117.541 6.35254 117.828 7.17513 117.873 8.24609H116.609C116.554 7.4349 116.383 6.85612 116.096 6.50977C115.809 6.16341 115.371 5.99023 114.784 5.99023C114.105 5.99023 113.583 6.25684 113.218 6.79004C112.854 7.31868 112.671 8.0957 112.671 9.12109V10.9463C112.671 11.9535 112.84 12.7259 113.177 13.2637C113.519 13.8014 114.016 14.0703 114.667 14.0703C115.319 14.0703 115.788 13.9085 116.076 13.585C116.363 13.2614 116.54 12.6803 116.609 11.8418H117.873ZM124.992 9.10742L127.002 9.10742C127.895 9.11198 128.595 9.37402 129.101 9.89355C129.607 10.4085 129.86 11.1195 129.86 12.0264C129.86 12.9378 129.602 13.6624 129.087 14.2002C128.577 14.7334 127.868 15 126.961 15H123.741V5.04687L124.992 5.04687V9.10742ZM124.992 10.1875V13.9268H126.988C127.499 13.9268 127.895 13.7513 128.178 13.4004C128.46 13.0495 128.602 12.5869 128.602 12.0127C128.602 11.4476 128.46 11.0033 128.178 10.6797C127.9 10.3516 127.506 10.1875 126.995 10.1875H124.992ZM135.57 14.3369C135.57 14.1182 135.634 13.9359 135.762 13.79C135.894 13.6442 136.09 13.5713 136.35 13.5713C136.609 13.5713 136.805 13.6442 136.938 13.79C137.074 13.9359 137.143 14.1182 137.143 14.3369C137.143 14.5465 137.074 14.722 136.938 14.8633C136.805 15.0046 136.609 15.0752 136.35 15.0752C136.09 15.0752 135.894 15.0046 135.762 14.8633C135.634 14.722 135.57 14.5465 135.57 14.3369ZM135.577 8.30078C135.577 8.08203 135.641 7.89974 135.769 7.75391C135.901 7.60807 136.097 7.53516 136.356 7.53516C136.616 7.53516 136.812 7.60807 136.944 7.75391C137.081 7.89974 137.149 8.08203 137.149 8.30078C137.149 8.51042 137.081 8.68587 136.944 8.82715C136.812 8.96842 136.616 9.03906 136.356 9.03906C136.097 9.03906 135.901 8.96842 135.769 8.82715C135.641 8.68587 135.577 8.51042 135.577 8.30078Z" fill="white"/>
</svg>
