<svg preserveAspectRatio="none" width="10" height="61" viewBox="0 0 10 61" fill="none" xmlns="http://www.w3.org/2000/svg">
<path d="M0.699878 7.6L0.499878 7.75V8V59V60L1.29988 59.4L9.29988 53.4L9.49988 53.25V53V2V1L8.69988 1.6L0.699878 7.6Z" fill="#021713" stroke="#0DAA8E"/>
<path d="M2.54822 51.7983H7.46126" stroke="white" stroke-opacity="0.2" stroke-width="0.5" stroke-linecap="round"/>
<path d="M2.54822 50.3389H7.46126" stroke="white" stroke-opacity="0.2" stroke-width="0.5" stroke-linecap="round"/>
<path d="M2.54822 48.8789H7.46126" stroke="white" stroke-opacity="0.2" stroke-width="0.5" stroke-linecap="round"/>
<path d="M2.54822 47.4189H7.46126" stroke="white" stroke-opacity="0.2" stroke-width="0.5" stroke-linecap="round"/>
<path d="M2.54822 45.959H7.46126" stroke="white" stroke-opacity="0.2" stroke-width="0.5" stroke-linecap="round"/>
<path d="M2.54822 44.499H7.46126" stroke="white" stroke-opacity="0.2" stroke-width="0.5" stroke-linecap="round"/>
<path d="M2.54822 43.0391H7.46126" stroke="white" stroke-opacity="0.2" stroke-width="0.5" stroke-linecap="round"/>
<path d="M2.54822 41.5791H7.46126" stroke="white" stroke-opacity="0.2" stroke-width="0.5" stroke-linecap="round"/>
<path d="M2.54822 40.1191H7.46126" stroke="white" stroke-opacity="0.2" stroke-width="0.5" stroke-linecap="round"/>
<path d="M2.54822 38.6592H7.46126" stroke="white" stroke-opacity="0.2" stroke-width="0.5" stroke-linecap="round"/>
<path d="M2.54822 37.1992H7.46126" stroke="white" stroke-opacity="0.2" stroke-width="0.5" stroke-linecap="round"/>
<path d="M2.54822 35.7393H7.46126" stroke="white" stroke-opacity="0.2" stroke-width="0.5" stroke-linecap="round"/>
<path d="M2.54822 34.2793H7.46126" stroke="white" stroke-opacity="0.2" stroke-width="0.5" stroke-linecap="round"/>
<path d="M2.54822 32.8193H7.46126" stroke="white" stroke-opacity="0.2" stroke-width="0.5" stroke-linecap="round"/>
<path d="M2.54822 31.3594H7.46126" stroke="white" stroke-opacity="0.2" stroke-width="0.5" stroke-linecap="round"/>
<path d="M2.54822 29.8994H7.46126" stroke="white" stroke-opacity="0.2" stroke-width="0.5" stroke-linecap="round"/>
<path d="M2.54822 28.4395H7.46126" stroke="white" stroke-opacity="0.2" stroke-width="0.5" stroke-linecap="round"/>
<path d="M2.54822 26.9795H7.46126" stroke="white" stroke-opacity="0.2" stroke-width="0.5" stroke-linecap="round"/>
<path d="M2.54822 25.5195H7.46126" stroke="white" stroke-opacity="0.2" stroke-width="0.5" stroke-linecap="round"/>
<path d="M2.54822 24.0596H7.46126" stroke="white" stroke-opacity="0.2" stroke-width="0.5" stroke-linecap="round"/>
<path d="M2.54822 22.5996H7.46126" stroke="white" stroke-opacity="0.2" stroke-width="0.5" stroke-linecap="round"/>
<path d="M2.54822 21.1396H7.46126" stroke="white" stroke-opacity="0.2" stroke-width="0.5" stroke-linecap="round"/>
<path d="M2.54822 19.6797H7.46126" stroke="white" stroke-opacity="0.2" stroke-width="0.5" stroke-linecap="round"/>
<path d="M2.54822 18.2197H7.46126" stroke="white" stroke-opacity="0.2" stroke-width="0.5" stroke-linecap="round"/>
<path d="M2.54822 16.7598H7.46126" stroke="white" stroke-opacity="0.2" stroke-width="0.5" stroke-linecap="round"/>
<path d="M2.54822 15.2998H7.46126" stroke="white" stroke-opacity="0.2" stroke-width="0.5" stroke-linecap="round"/>
<path d="M2.54822 13.8398H7.46126" stroke="white" stroke-opacity="0.2" stroke-width="0.5" stroke-linecap="round"/>
<path d="M2.54822 12.3804H7.46126" stroke="white" stroke-opacity="0.2" stroke-width="0.5" stroke-linecap="round"/>
<path d="M2.54822 10.9199H7.46126" stroke="white" stroke-opacity="0.2" stroke-width="0.5" stroke-linecap="round"/>
<path d="M2.54822 9.45996H7.46126" stroke="white" stroke-opacity="0.2" stroke-width="0.5" stroke-linecap="round"/>
<path d="M2.54822 8H7.46126" stroke="white" stroke-opacity="0.2" stroke-width="0.5" stroke-linecap="round"/>
</svg>
