<svg width="25" height="24" viewBox="0 0 25 24" fill="none" xmlns="http://www.w3.org/2000/svg">
<g id="Group 135">
<path id="Vector 168" d="M10.9541 8L1.4541 17.5V18.5L4.4541 22L6.4541 23L16.4541 14V12.5L17.4541 12L23.4541 3V0.5L16.9541 3L11.9541 8H10.9541Z" fill="#0C7B67"/>
<path id="Vector" d="M24.4534 1.54692C24.3667 2.01408 24.3019 2.48599 24.1903 2.94662C23.6776 5.0539 22.6457 6.90296 21.3459 8.61845C20.4785 9.76291 19.452 10.7584 18.4391 11.7681C18.1842 12.0216 17.924 12.2703 17.6805 12.5338C17.6157 12.6039 17.5652 12.722 17.5694 12.8152C17.5967 13.4557 17.3745 13.9858 16.9224 14.4369C13.9954 17.3562 11.0732 20.2803 8.14744 23.2008C7.07693 24.2693 5.61671 24.2651 4.54382 23.196C3.44776 22.1038 2.35289 21.0104 1.25981 19.9152C0.18692 18.8402 0.185138 17.3859 1.25684 16.3145C4.1749 13.3969 7.09594 10.4829 10.0104 7.56244C10.475 7.09706 11.0162 6.87149 11.6726 6.89286C11.7701 6.89583 11.8919 6.82638 11.9661 6.75337C12.7651 5.97219 13.5386 5.16431 14.3543 4.40094C16.1632 2.70621 18.1937 1.35697 20.5605 0.557389C21.3548 0.289082 22.1675 0.10388 23.0057 0.0397711C23.0669 0.0350223 23.1269 0.0136528 23.1869 0C23.4061 0 23.6247 0 23.8439 0C24.1184 0.110409 24.3192 0.300361 24.454 0.562731V1.54692H24.4534ZM6.3581 22.4499C6.57434 22.3282 6.78227 22.251 6.93732 22.1145C7.24208 21.8468 7.51713 21.5464 7.80466 21.2591C10.4518 18.6141 13.0996 15.969 15.7468 13.3233C16.0266 13.0437 16.0408 12.8556 15.7907 12.6051C14.4826 11.295 13.1721 9.9861 11.861 8.679C11.6287 8.44691 11.419 8.44453 11.192 8.67188C8.23952 11.6197 5.28819 14.5687 2.33864 17.5189C1.97982 17.878 1.97863 18.3458 2.33626 18.7055C3.47747 19.8511 4.61927 20.9968 5.77354 22.1293C5.91849 22.2712 6.14067 22.3341 6.3581 22.4505V22.4499ZM22.8007 1.67157C19.9302 2.16841 17.6466 3.62392 15.5727 5.46229C16.7311 6.61803 17.8628 7.74824 19.0124 8.89507C20.8451 6.81807 22.3077 4.53687 22.8013 1.67157H22.8007ZM14.4113 6.67026C14.0329 7.0472 13.6598 7.41939 13.2974 7.7797C14.4232 8.90397 15.5644 10.0443 16.6895 11.168C17.0531 10.8041 17.4315 10.4254 17.7993 10.0579C16.6741 8.93306 15.5335 7.79217 14.4113 6.67026Z" fill="#0DAA8E"/>
<path id="Vector_2" d="M0.509766 7.26128C0.610163 7.07608 0.674917 6.85467 0.817493 6.71042C2.15593 5.35405 3.50506 4.00895 4.85716 2.66564C5.18449 2.34035 5.68173 2.34213 5.99599 2.64665C6.32451 2.96482 6.33877 3.4575 5.99955 3.79882C4.65102 5.15579 3.29654 6.50741 1.93969 7.85607C1.68959 8.10478 1.38305 8.1683 1.05512 8.02643C0.739076 7.8899 0.577489 7.63881 0.51036 7.26069L0.509766 7.26128Z" fill="#0DAA8E"/>
<path id="Vector_3" d="M17.2546 23.1723C16.9005 23.1165 16.6522 22.9717 16.5078 22.682C16.3605 22.3858 16.389 22.0908 16.5904 21.8231C16.651 21.7423 16.7276 21.6735 16.7989 21.6017C17.9586 20.4424 19.1158 19.2813 20.2796 18.1255C20.7483 17.6602 21.4683 17.8222 21.6525 18.4283C21.744 18.7292 21.6786 19.0059 21.4576 19.2279C20.2398 20.4507 19.0219 21.6729 17.7916 22.8826C17.6526 23.0198 17.4352 23.0773 17.2546 23.1717V23.1723Z" fill="#0DAA8E"/>
<path id="Vector_4" d="M8.00601 6.47521C7.53966 6.45859 7.28243 6.30663 7.14104 5.99143C6.9955 5.66673 7.05134 5.35984 7.2955 5.10519C7.66323 4.72232 8.04403 4.35191 8.41888 3.97676C8.84364 3.55174 9.26721 3.12494 9.69494 2.70289C10.0561 2.34614 10.5587 2.32952 10.8849 2.65719C11.2181 2.99257 11.2033 3.47398 10.8356 3.84498C10.0544 4.63149 9.27434 5.4192 8.47889 6.19088C8.3268 6.33868 8.1064 6.41644 8.00601 6.47521Z" fill="#0DAA8E"/>
<path id="Vector_5" d="M17.7187 18.6615C17.3046 18.6437 17.0575 18.4989 16.912 18.2104C16.7664 17.9213 16.7682 17.6103 16.9892 17.377C17.5684 16.7656 18.1625 16.1667 18.775 15.5891C19.069 15.3113 19.552 15.3724 19.8366 15.6645C20.1116 15.9464 20.1633 16.4237 19.893 16.7098C19.3197 17.3165 18.7251 17.9029 18.1215 18.4793C18.0027 18.5927 17.8054 18.6247 17.7181 18.6621L17.7187 18.6615Z" fill="#0DAA8E"/>
<path id="Vector_6" d="M24.1374 12.2675C24.0821 12.3702 24.0174 12.5886 23.8772 12.7364C23.3568 13.2861 22.8162 13.8162 22.2756 14.3457C21.9393 14.6751 21.4338 14.6716 21.1207 14.3528C20.8088 14.0352 20.8035 13.5503 21.1284 13.2173C21.6625 12.67 22.2043 12.1304 22.7508 11.5955C23.0092 11.3427 23.3211 11.2786 23.6562 11.4323C23.9603 11.5718 24.1112 11.8217 24.1374 12.2681V12.2675Z" fill="#0DAA8E"/>
</g>
</svg>
